<svg xmlns="http://www.w3.org/2000/svg" data-name="Livello 1" viewBox="0 0 8000 7000"><polygon fill="#56b7b7" points="500.6 3288.7 4702.83 5718.85 7499.4 4116.69 3297.17 1688.51 500.6 3288.7"/><polygon fill="#32706d" points="500.6 3288.7 500.6 3483.44 4702.83 5905.67 4702.83 5718.85 500.6 3288.7"/><polygon fill="#3c8482" points="4702.83 5905.67 7499.4 4294.75 7499.4 4116.69 4702.83 5718.85 4702.83 5905.67"/><polygon fill="#44918f" points="1655.77 3721.63 1925.47 3721.63 2279.22 3518.33 2064.25 3288.7 1655.77 3721.63"/><polygon fill="#397c7a" points="3381.92 3059.02 3596.95 3059.02 4298.22 2662.96 3985.86 2481.97 3381.92 3059.02"/><path fill="#00756f" d="M2940.32,1813c-24.23-34.6-60.86-67-110-94.9-193.87-110-508.84-110-699.91,0-48.46,27.89-84.57,60.3-108.45,94.9h-34.86v118.63h.56c5.58,67.91,53.16,134.86,142.75,186.42,191.07,110,506,110,699.91,0,90.89-51.56,139.17-118.51,144.84-186.42h.57V1813Z"/><polygon fill="#00756f" points="2826.05 1604.43 3522.58 1204.48 3324.3 1094.33 2644.72 1495.97 2826.05 1604.43"/><polygon fill="#00847d" points="3522.58 1287.75 3522.58 1204.48 2826.05 1604.43 2826.05 1687.7 3522.58 1287.75"/><polygon fill="#1e454f" points="2826.05 1687.7 2826.05 1604.43 2644.72 1495.97 2644.72 1579.24 2826.05 1687.7"/><path fill="#00c1bf" d="M2975.7,1806c0-213.85-181.59-415-181.59-415l-312.73,75.69L2168.66,1391s-181.59,202-181.59,415.83h.25c-2.78,74.53,44.81,149.58,143.06,206.13,191.07,110,506,110,699.91,0,100.06-56.76,148.34-132.17,145.11-207Z"/><path fill="#00756f" d="M2730.52,1342.53c-138.43-78.54-363.34-78.54-499.78,0s-136.44,207,0,285.59,361.35,78.54,499.78,0S2869,1421.07,2730.52,1342.53Z"/><path fill="#00938f" d="M2643.47,1418.27a166.92,166.92,0,0,0-20.84-13.9c-78.49-44.53-206-44.53-283.35,0a166.15,166.15,0,0,0-20.59,13.94h-37.21v61.93c-2.36,31,16.89,62.48,57.8,86,77.35,44.53,204.86,44.53,283.35,0,39.24-22.26,58.86-51.61,58.86-81v-67Z"/><polygon fill="#00756f" points="3381.92 2078.63 2694.71 2481.97 3381.92 2886.16 4072.51 2482.39 3381.92 2078.63"/><polygon fill="#00c1bf" points="3381.92 3059.02 3381.92 2886.16 4072.51 2482.39 4072.51 2655.26 3381.92 3059.02"/><polygon fill="#00938f" points="3381.92 3059.02 3381.92 2886.16 2694.71 2481.97 2694.71 2654.83 3381.92 3059.02"/><polygon fill="#005b54" points="3400.27 2618.13 3283.97 2686.39 3400.27 2754.8 3517.16 2686.46 3400.27 2618.13"/><polygon fill="#00c1bf" points="3400.27 2784.05 3400.27 2754.8 3517.16 2686.46 3517.16 2715.72 3400.27 2784.05"/><polygon fill="#00938f" points="3400.27 2784.05 3400.27 2754.8 3283.97 2686.39 3283.97 2715.65 3400.27 2784.05"/><polygon fill="#00938f" points="3400.56 2581.54 3214.36 2466.47 3213.01 1463.37 3413.82 1349.38 3400.56 2581.54"/><path fill="#00c1bf" d="M2622.63,1342.51c-78.48-44.53-206-44.53-283.35,0s-77.35,117.39,0,161.91,204.87,44.53,283.35,0S2701.12,1387,2622.63,1342.51Z"/><polygon fill="#00c1bf" points="3522.58 1287.75 3522.58 2507.82 3400.56 2581.54 3400.56 1356.89 3522.58 1287.75"/><polygon fill="#44918f" points="3060.33 4465.02 3300.73 4465.02 4205.13 3963.57 3883.67 3774.49 3060.33 4465.02"/><polygon fill="#2d99b2" points="3765.32 3867.71 3940.58 3766.86 3959.97 3784.39 3984.6 3822.12 3984.6 3874.78 3955.52 3937.65 3909.93 3969.09 3765.32 3867.71"/><polygon fill="#2d99b2" points="3060.33 4465.02 3940.58 3958.87 2947.16 3386.71 2079.49 3892.86 3060.33 4465.02"/><path fill="#278eaa" d="M3930.07,3963.57c62.46-22,66.91-110,67.07-113.71v-.33c0-65.08-63.7-95-66.41-96.22l-6.54,14.29,3.27-7.15-3.28,7.15c.57.26,57.11,27,57.25,81.73-.22,3.83-7.37,82.07-58.73,100.11Z"/><polygon fill="#309fc6" points="3060.33 4264.6 3940.58 3758.46 2947.16 3186.3 2079.49 3692.44 3060.33 4264.6"/><path fill="#91cbce" d="M3060.33,4282.42l856.18-494.69s44.94,21,43.42,66.09c0,0-.49,64.45-72.26,103.75l-827.34,472.08Z"/><polygon fill="#278eaa" points="3937.57 3775.57 3060.33 4282.42 3060.33 4264.6 3925.98 3766.86 3937.57 3775.57"/><polygon fill="#278eaa" points="3922.7 3949.44 3060.33 4444.58 3060.33 4465.02 3930.07 3963.57 3922.7 3949.44"/><polygon fill="#aceaf9" points="3060.33 4282.42 2109.35 3728.18 2109.35 3884.73 3060.33 4429.65 3060.33 4282.42"/><polygon fill="#278eaa" points="3060.33 4282.42 2079.49 3710.78 2079.49 3692.44 3060.33 4264.6 3060.33 4282.42"/><polygon fill="#2b89b2" points="3130.21 3554.29 2762.81 3766.86 2518.76 3626.02 2886.16 3414.33 3130.21 3554.29"/><line x1="2886.15" x2="2596.63" y1="3459.2" y2="3626.02" fill="none" stroke="#227896" stroke-miterlimit="10" stroke-width="4.72"/><line x1="2913.84" x2="2624.32" y1="3477.26" y2="3644.09" fill="none" stroke="#227896" stroke-miterlimit="10" stroke-width="4.72"/><line x1="2941.35" x2="2651.83" y1="3498.15" y2="3664.97" fill="none" stroke="#227896" stroke-miterlimit="10" stroke-width="4.72"/><line x1="2969.04" x2="2679.52" y1="3516.21" y2="3683.03" fill="none" stroke="#227896" stroke-miterlimit="10" stroke-width="4.72"/><polygon fill="#2d99b2" points="3765.32 3641.67 3940.58 3540.82 3959.97 3558.36 3984.6 3596.09 3984.6 3648.74 3955.52 3711.62 3909.93 3743.06 3765.32 3641.67"/><polygon fill="#2d99b2" points="3060.33 4238.98 3940.58 3732.84 2947.16 3160.68 2079.49 3666.82 3060.33 4238.98"/><path fill="#278eaa" d="M3930.07,3737.53c62.46-21.94,66.91-110,67.07-113.71v-.33c0-65.07-63.7-95-66.41-96.22l-6.54,14.29,3.27-7.14-3.28,7.14c.57.26,57.11,27,57.25,81.74-.22,3.82-7.37,82.07-58.73,100.11Z"/><polygon fill="#309fc6" points="3060.33 4038.57 3940.58 3532.43 2947.16 2960.26 2079.49 3466.41 3060.33 4038.57"/><path fill="#91cbce" d="M3060.33,4056.38l856.18-494.68s44.94,21,43.42,66.09c0,0-.49,64.44-72.26,103.74l-827.34,472.09Z"/><polygon fill="#278eaa" points="3937.57 3549.53 3060.33 4056.38 3060.33 4038.57 3925.98 3540.82 3937.57 3549.53"/><polygon fill="#278eaa" points="3922.7 3723.41 3060.33 4218.55 3060.33 4238.98 3930.07 3737.53 3922.7 3723.41"/><polygon fill="#aceaf9" points="3060.33 4056.38 2109.35 3502.15 2109.35 3658.7 3060.33 4203.62 3060.33 4056.38"/><polygon fill="#278eaa" points="3060.33 4056.38 2079.49 3484.75 2079.49 3466.41 3060.33 4038.57 3060.33 4056.38"/><polygon fill="#2b89b2" points="3130.21 3328.25 2762.81 3540.82 2518.76 3399.99 2886.16 3188.3 3130.21 3328.25"/><line x1="2886.15" x2="2596.63" y1="3233.16" y2="3399.98" fill="none" stroke="#227896" stroke-miterlimit="10" stroke-width="4.72"/><line x1="2913.84" x2="2624.32" y1="3251.23" y2="3418.05" fill="none" stroke="#227896" stroke-miterlimit="10" stroke-width="4.72"/><line x1="2941.35" x2="2651.83" y1="3272.12" y2="3438.94" fill="none" stroke="#227896" stroke-miterlimit="10" stroke-width="4.72"/><line x1="2969.04" x2="2679.52" y1="3290.18" y2="3457" fill="none" stroke="#227896" stroke-miterlimit="10" stroke-width="4.72"/><polygon fill="#509324" points="2624.32 3163.47 1655.71 3721.63 965.62 3322.99 1932.03 2762.34 2624.32 3163.47"/><polygon fill="#56a820" points="2624.32 3000.85 1655.71 3559.01 965.62 3160.38 1932.03 2599.73 2624.32 3000.85"/><polygon fill="#3d7519" points="2624.32 3000.85 2624.32 3019.44 1655.77 3577.5 1655.71 3559.01 2624.32 3000.85"/><polygon fill="#2e5613" points="1655.77 3577.5 965.62 3178.96 965.62 3160.38 1655.71 3559.01 1655.77 3577.5"/><polygon fill="#3d7519" points="2624.32 3144.98 2624.32 3163.56 1655.77 3721.63 1655.71 3703.14 2624.32 3144.98"/><polygon fill="#2e5613" points="1655.77 3721.63 965.62 3323.08 965.62 3304.5 1655.71 3703.14 1655.77 3721.63"/><polygon fill="#c16b2b" points="2624.32 3144.98 2514.47 3082.74 2491.58 3095.92 2603.26 3157.11 2624.32 3144.98"/><polygon fill="#c16b2b" points="965.62 3304.5 1074.76 3241.99 1104.41 3259.1 1063.19 3290.47 990.65 3318.96 965.62 3304.5"/><polygon fill="#3d7519" points="2624.32 3000.85 2624.32 3163.56 2604.71 3174.31 2604.71 3012.16 2624.32 3000.85"/><polygon fill="#c16b2b" points="2604.71 3133.86 2604.71 3030.74 2514.47 3082.74 2604.71 3133.86"/><polygon fill="#c6c6c6" points="2599.54 3033.89 2599.54 3152.63 1655.77 3693.14 1655.77 3578.02 2599.54 3033.89"/><polygon fill="#e5e5e5" points="1655.77 3577.5 987.68 3192.25 987.68 3306.35 1655.77 3693.14 1655.77 3577.5"/><path fill="#4c931d" d="M2326.71,2942.67c25.41,14.76,25.46,39,.11,53.85l-204.61,120c-25.35,14.86-66.87,14.93-92.26.16L1726.11,2940c-25.4-14.77-25.39-38.91,0-53.64L1932,2767c25.42-14.73,67-14.71,92.41,0Z"/><polygon fill="#509324" points="2624.32 2984.45 1655.71 3542.61 965.62 3143.97 1932.03 2583.32 2624.32 2984.45"/><polygon fill="#56a820" points="2624.32 2821.83 1655.71 3379.99 965.62 2981.35 1932.03 2420.71 2624.32 2821.83"/><polygon fill="#3d7519" points="2624.32 2821.83 2624.32 2840.42 1655.77 3398.48 1655.71 3379.99 2624.32 2821.83"/><polygon fill="#2e5613" points="1655.77 3398.48 965.62 2999.94 965.62 2981.35 1655.71 3379.99 1655.77 3398.48"/><polygon fill="#3d7519" points="2624.32 2965.96 2624.32 2984.54 1655.77 3542.61 1655.71 3524.11 2624.32 2965.96"/><polygon fill="#2e5613" points="1655.77 3542.61 965.62 3144.06 965.62 3125.48 1655.71 3524.11 1655.77 3542.61"/><polygon fill="#c16b2b" points="2624.32 2965.96 2514.47 2903.72 2491.58 2916.9 2603.26 2978.09 2624.32 2965.96"/><polygon fill="#c16b2b" points="965.62 3125.48 1074.76 3062.97 1104.41 3080.08 1063.19 3111.45 990.65 3139.94 965.62 3125.48"/><polygon fill="#3d7519" points="2624.32 2821.83 2624.32 2984.54 2604.71 2995.29 2604.71 2833.14 2624.32 2821.83"/><polygon fill="#c16b2b" points="2604.71 2954.84 2604.71 2851.72 2514.47 2903.72 2604.71 2954.84"/><polygon fill="#c6c6c6" points="2599.54 2854.87 2599.54 2973.61 1655.77 3514.12 1655.77 3399 2599.54 2854.87"/><polygon fill="#e5e5e5" points="1655.77 3398.48 987.68 3013.23 987.68 3127.32 1655.77 3514.12 1655.77 3398.48"/><path fill="#4c931d" d="M2326.71,2763.65c25.41,14.76,25.46,39,.11,53.85l-204.61,120c-25.35,14.86-66.87,14.93-92.26.16L1726.11,2761c-25.4-14.77-25.39-38.91,0-53.64L1932,2588c25.42-14.73,67-14.71,92.41,0Z"/><polygon fill="#509324" points="2624.32 2806.4 1655.71 3364.56 965.62 2965.92 1932.03 2405.28 2624.32 2806.4"/><polygon fill="#56a820" points="2624.32 2643.78 1655.71 3201.94 965.62 2803.31 1932.03 2242.66 2624.32 2643.78"/><polygon fill="#3d7519" points="2624.32 2643.78 2624.32 2662.37 1655.77 3220.43 1655.71 3201.94 2624.32 2643.78"/><polygon fill="#2e5613" points="1655.77 3220.43 965.62 2821.89 965.62 2803.31 1655.71 3201.94 1655.77 3220.43"/><polygon fill="#3d7519" points="2624.32 2787.91 2624.32 2806.49 1655.77 3364.56 1655.71 3346.07 2624.32 2787.91"/><polygon fill="#2e5613" points="1655.77 3364.56 965.62 2966.01 965.62 2947.43 1655.71 3346.07 1655.77 3364.56"/><polygon fill="#c16b2b" points="2624.32 2787.91 2514.47 2725.67 2491.58 2738.85 2603.26 2800.04 2624.32 2787.91"/><polygon fill="#c16b2b" points="965.62 2947.43 1074.76 2884.92 1104.41 2902.03 1063.19 2933.4 990.65 2961.89 965.62 2947.43"/><polygon fill="#3d7519" points="2624.32 2643.78 2624.32 2806.49 2604.71 2817.24 2604.71 2655.09 2624.32 2643.78"/><polygon fill="#c16b2b" points="2604.71 2776.79 2604.71 2673.67 2514.47 2725.67 2604.71 2776.79"/><polygon fill="#c6c6c6" points="2599.54 2676.82 2599.54 2795.56 1655.77 3336.07 1655.77 3220.95 2599.54 2676.82"/><polygon fill="#e5e5e5" points="1655.77 3220.43 987.68 2835.18 987.68 2949.28 1655.77 3336.07 1655.77 3220.43"/><path fill="#4c931d" d="M2326.71,2585.61c25.41,14.75,25.46,39,.11,53.84l-204.61,120c-25.35,14.86-66.87,14.93-92.26.16L1726.11,2582.9c-25.4-14.77-25.39-38.91,0-53.64L1932,2410c25.42-14.73,67-14.71,92.41,0Z"/><polygon fill="#509324" points="2624.32 2627.38 1655.71 3185.54 965.62 2786.9 1932.03 2226.26 2624.32 2627.38"/><polygon fill="#56a820" points="2624.32 2464.76 1655.71 3022.92 965.62 2624.28 1932.03 2063.64 2624.32 2464.76"/><polygon fill="#3d7519" points="2624.32 2464.76 2624.32 2483.35 1655.77 3041.41 1655.71 3022.92 2624.32 2464.76"/><polygon fill="#2e5613" points="1655.77 3041.41 965.62 2642.87 965.62 2624.28 1655.71 3022.92 1655.77 3041.41"/><polygon fill="#3d7519" points="2624.32 2608.89 2624.32 2627.47 1655.77 3185.54 1655.71 3167.05 2624.32 2608.89"/><polygon fill="#2e5613" points="1655.77 3185.54 965.62 2786.99 965.62 2768.41 1655.71 3167.05 1655.77 3185.54"/><polygon fill="#c16b2b" points="2624.32 2608.89 2514.47 2546.64 2491.58 2559.83 2603.26 2621.02 2624.32 2608.89"/><polygon fill="#c16b2b" points="965.62 2768.41 1074.76 2705.9 1104.41 2723.01 1063.19 2754.38 990.65 2782.87 965.62 2768.41"/><polygon fill="#3d7519" points="2624.32 2464.76 2624.32 2627.47 2604.71 2638.22 2604.71 2476.07 2624.32 2464.76"/><polygon fill="#c16b2b" points="2604.71 2597.77 2604.71 2494.65 2514.47 2546.64 2604.71 2597.77"/><polygon fill="#c6c6c6" points="2599.54 2497.8 2599.54 2616.54 1655.77 3157.05 1655.77 3041.93 2599.54 2497.8"/><polygon fill="#e5e5e5" points="1655.77 3041.41 987.68 2656.16 987.68 2770.26 1655.77 3157.05 1655.77 3041.41"/><path fill="#4c931d" d="M2326.71,2406.58c25.41,14.76,25.46,39,.11,53.85l-204.61,120c-25.35,14.86-66.87,14.93-92.26.16l-303.84-176.67c-25.4-14.77-25.39-38.91,0-53.64L1932,2230.94c25.42-14.73,67-14.71,92.41,0Z"/><polygon fill="#44918f" points="4730.02 5396.29 4966.4 5396.29 5752.49 4944.69 5443.89 4767.06 4730.02 5396.29"/><polygon fill="#2d99b2" points="3765.32 3414.28 3940.58 3313.43 3959.97 3330.97 3984.6 3368.7 3984.6 3421.35 3955.52 3484.23 3909.93 3515.67 3765.32 3414.28"/><polygon fill="#2d99b2" points="3060.33 4011.59 3940.58 3505.45 2947.16 2933.29 2079.49 3439.43 3060.33 4011.59"/><path fill="#278eaa" d="M3930.07,3510.14c62.46-21.95,66.91-110,67.07-113.71v-.33c0-65.08-63.7-95-66.41-96.22l-6.54,14.29,3.27-7.14-3.28,7.14c.57.26,57.11,27,57.25,81.74-.22,3.82-7.37,82.07-58.73,100.11Z"/><polygon fill="#309fc6" points="3060.33 3811.18 3940.58 3305.04 2947.16 2732.87 2079.49 3239.02 3060.33 3811.18"/><path fill="#91cbce" d="M3060.33,3829l856.18-494.68s44.94,21,43.42,66.09c0,0-.49,64.44-72.26,103.74l-827.34,472.09Z"/><polygon fill="#278eaa" points="3937.57 3322.14 3060.33 3828.99 3060.33 3811.18 3925.98 3313.43 3937.57 3322.14"/><polygon fill="#278eaa" points="3922.7 3496.02 3060.33 3991.16 3060.33 4011.59 3930.07 3510.14 3922.7 3496.02"/><polygon fill="#aceaf9" points="3060.33 3828.99 2109.35 3274.76 2109.35 3431.31 3060.33 3976.22 3060.33 3828.99"/><polygon fill="#278eaa" points="3060.33 3828.99 2079.49 3257.36 2079.49 3239.02 3060.33 3811.18 3060.33 3828.99"/><polygon fill="#2b89b2" points="3130.21 3100.86 2762.81 3313.43 2518.76 3172.59 2886.16 2960.91 3130.21 3100.86"/><line x1="2886.15" x2="2596.63" y1="3005.77" y2="3172.59" fill="none" stroke="#227896" stroke-miterlimit="10" stroke-width="4.72"/><line x1="2913.84" x2="2624.32" y1="3023.84" y2="3190.66" fill="none" stroke="#227896" stroke-miterlimit="10" stroke-width="4.72"/><line x1="2941.35" x2="2651.83" y1="3044.73" y2="3211.55" fill="none" stroke="#227896" stroke-miterlimit="10" stroke-width="4.72"/><line x1="2969.04" x2="2679.52" y1="3062.79" y2="3229.61" fill="none" stroke="#227896" stroke-miterlimit="10" stroke-width="4.72"/><polygon fill="#c16b2b" points="3597.94 4743.89 4730.09 5396.29 5536.7 4930.35 4407.12 4275.04 3597.94 4743.89"/><polygon fill="#d37b33" points="3597.94 4553.81 4730.09 5206.21 5536.7 4740.27 4407.12 4084.96 3597.94 4553.81"/><polygon fill="#a85c29" points="3597.94 4553.81 3597.94 4575.54 4730.02 5227.82 4730.09 5206.21 3597.94 4553.81"/><polygon fill="#b7672c" points="4730.02 5227.82 5536.7 4761.99 5536.7 4740.27 4730.09 5206.21 4730.02 5227.82"/><polygon fill="#a85c29" points="3597.94 4722.27 3597.94 4744 4730.02 5396.29 4730.09 5374.67 3597.94 4722.27"/><polygon fill="#b7672c" points="4730.02 5396.29 5536.7 4930.45 5536.7 4908.73 4730.09 5374.67 4730.02 5396.29"/><polygon fill="#c16b2b" points="3597.94 4722.27 3726.35 4649.52 3753.1 4664.93 3622.56 4736.46 3597.94 4722.27"/><polygon fill="#c16b2b" points="5536.7 4908.73 5409.13 4835.66 5374.48 4855.67 5422.66 4892.33 5507.44 4925.63 5536.7 4908.73"/><polygon fill="#a85c29" points="3597.94 4553.81 3597.94 4744 3620.87 4756.56 3620.87 4567.03 3597.94 4553.81"/><polygon fill="#c16b2b" points="3620.87 4709.28 3620.87 4588.75 3726.35 4649.52 3620.87 4709.28"/><polygon fill="#c6c6c6" points="3626.91 4592.44 3626.91 4731.22 4730.02 5362.99 4730.02 5228.43 3626.91 4592.44"/><polygon fill="#e5e5e5" points="4730.02 5227.82 5510.91 4777.53 5510.91 4910.88 4730.02 5362.99 4730.02 5227.82"/><path fill="#bc6626" d="M3945.8,4485.81c-29.69,17.25-29.76,45.58-.13,62.94L4184.83,4689c29.63,17.37,78.16,17.46,107.84.19l355.14-206.5c29.69-17.26,29.67-45.47,0-62.69l-240.58-139.45c-29.71-17.21-78.32-17.2-108,.05Z"/><polygon fill="#c16b2b" points="3597.94 4526.9 4730.09 5179.3 5536.7 4713.36 4407.12 4058.05 3597.94 4526.9"/><polygon fill="#d37b33" points="3597.94 4336.82 4730.09 4989.22 5536.7 4523.28 4407.12 3867.97 3597.94 4336.82"/><polygon fill="#a85c29" points="3597.94 4336.82 3597.94 4358.55 4730.02 5010.83 4730.09 4989.22 3597.94 4336.82"/><polygon fill="#b7672c" points="4730.02 5010.83 5536.7 4545 5536.7 4523.28 4730.09 4989.22 4730.02 5010.83"/><polygon fill="#a85c29" points="3597.94 4505.29 3597.94 4527.01 4730.02 5179.3 4730.09 5157.68 3597.94 4505.29"/><polygon fill="#b7672c" points="4730.02 5179.3 5536.7 4713.46 5536.7 4691.74 4730.09 5157.68 4730.02 5179.3"/><polygon fill="#c16b2b" points="3597.94 4505.29 3726.35 4432.53 3753.1 4447.94 3622.56 4519.47 3597.94 4505.29"/><polygon fill="#c16b2b" points="5536.7 4691.74 5409.13 4618.67 5374.48 4638.68 5422.66 4675.34 5507.44 4708.64 5536.7 4691.74"/><polygon fill="#a85c29" points="3597.94 4336.82 3597.94 4527.01 3620.87 4539.57 3620.87 4350.04 3597.94 4336.82"/><polygon fill="#c16b2b" points="3620.87 4492.29 3620.87 4371.76 3726.35 4432.53 3620.87 4492.29"/><polygon fill="#c6c6c6" points="3626.91 4375.45 3626.91 4514.23 4730.02 5146 4730.02 5011.44 3626.91 4375.45"/><polygon fill="#e5e5e5" points="4730.02 5010.83 5510.91 4560.54 5510.91 4693.9 4730.02 5146 4730.02 5010.83"/><path fill="#bc6626" d="M3945.8,4268.82c-29.69,17.25-29.76,45.58-.13,62.94L4184.83,4472c29.63,17.37,78.16,17.46,107.84.19l355.14-206.5c29.69-17.26,29.67-45.47,0-62.69l-240.58-139.44c-29.71-17.22-78.32-17.2-108,0Z"/><polygon fill="#44918f" points="4948.57 3885.53 5247.74 3885.53 5946.94 3480.08 5628.37 3299.67 4948.57 3885.53"/><polygon fill="#449ab7" points="4989.37 2041.55 4305.05 2438.59 4305.05 3494.66 4989.37 3094.4 4989.37 2041.55"/><polygon fill="#54a52f" points="4573.91 1797.55 3888.15 2195.42 3888.15 3251.49 4572.47 2851.23 4573.91 1797.55"/><polygon fill="#52962a" points="3888.15 3251.49 3850.99 3227.82 3850.99 2171.75 3888.15 2195.42 3888.15 3251.49"/><polygon fill="#498927" points="3888.15 2195.42 3850.99 2171.75 4535.31 1774.71 4573.91 1797.55 3888.15 2195.42"/><polygon fill="#54a52f" points="5026.53 2065.23 4342.21 2462.26 4342.21 3518.33 5026.53 3118.07 5026.53 2065.23"/><polygon fill="#4a8c28" points="4900.64 2240.09 4468.1 2491.04 4468.1 2918.28 4900.64 2665.28 4900.64 2240.09"/><polygon fill="#52962a" points="4342.21 3518.33 4305.05 3494.66 4305.05 2438.59 4342.21 2462.26 4342.21 3518.33"/><polygon fill="#498927" points="4342.21 2462.26 4305.05 2438.59 4989.37 2041.55 5026.53 2065.23 4342.21 2462.26"/><polygon fill="#efefef" points="4305.05 3445.16 3914.51 3219.21 3914.51 2225.01 4572.47 1846.27 4948.57 2065.23 4305.05 2438.59 4305.05 3445.16"/><polygon fill="#dbdbdb" points="3914.51 2225.01 4305.05 2438.59 4305.05 3445.16 3914.51 3219.21 3914.51 2225.01"/><polygon fill="#437a23" points="5026.53 2065.23 4535.31 1774.71 4617.39 1729.52 5108.87 2019.29 5026.53 2065.23"/><polygon fill="#54a52f" points="4573.91 1797.55 4989.37 2041.55 4948.57 2065.23 4572.47 1846.27 4573.91 1797.55"/><polygon fill="#437a23" points="5108.87 2019.29 5108.87 3072.88 5026.53 3118.07 5026.53 2065.23 5108.87 2019.29"/><polygon fill="#449ab7" points="5600.88 2422.95 4916.55 2819.99 4916.55 3876.06 5600.88 3475.79 5600.88 2422.95"/><polygon fill="#53acd3" points="5185.42 2178.94 4499.65 2576.82 4499.65 3632.89 5183.96 3232.63 5185.42 2178.94"/><polygon fill="#449ab7" points="4499.65 3632.89 4462.49 3609.22 4462.49 2553.15 4499.65 2576.82 4499.65 3632.89"/><polygon fill="#34859b" points="4499.65 2576.82 4462.49 2553.15 5146.81 2156.11 5185.42 2178.94 4499.65 2576.82"/><polygon fill="#53acd3" points="5638.03 2446.63 4953.71 2843.66 4953.71 3899.73 5638.03 3499.46 5638.03 2446.63"/><polygon fill="#3c91af" points="5512.14 2621.49 5079.6 2872.44 5079.6 3299.67 5512.14 3046.68 5512.14 2621.49"/><polygon fill="#449ab7" points="4953.71 3899.73 4916.55 3876.06 4916.55 2819.99 4953.71 2843.66 4953.71 3899.73"/><polygon fill="#34859b" points="4953.71 2843.66 4916.55 2819.99 5600.88 2422.95 5638.03 2446.63 4953.71 2843.66"/><polygon fill="#efefef" points="4916.55 3826.56 4526.01 3600.61 4526.01 2606.41 5183.96 2227.66 5560.07 2446.63 4916.55 2819.99 4916.55 3826.56"/><polygon fill="#dbdbdb" points="4526.01 2606.41 4916.55 2819.99 4916.55 3826.56 4526.01 3600.61 4526.01 2606.41"/><polygon fill="#2f7a8c" points="5638.03 2446.63 5146.81 2156.11 5228.89 2110.92 5720.37 2400.68 5638.03 2446.63"/><polygon fill="#47a0bf" points="5185.42 2178.94 5600.88 2422.95 5560.07 2446.63 5183.96 2227.66 5185.42 2178.94"/><polygon fill="#2f7a8c" points="5720.37 2400.68 5720.37 3454.27 5638.03 3499.46 5638.03 2446.63 5720.37 2400.68"/><polygon fill="#44918f" points="6161.94 4617.09 6461.11 4617.09 7160.31 4211.64 6841.74 4031.23 6161.94 4617.09"/><polygon fill="#449ab7" points="6202.74 2773.11 5518.42 3170.15 5518.42 4226.22 6202.74 3825.96 6202.74 2773.11"/><polygon fill="#54a52f" points="5787.29 2529.11 5101.52 2926.98 5101.52 3983.05 5785.84 3582.79 5787.29 2529.11"/><polygon fill="#52962a" points="5101.52 3983.05 5064.36 3959.38 5064.36 2903.31 5101.52 2926.98 5101.52 3983.05"/><polygon fill="#498927" points="5101.52 2926.98 5064.36 2903.31 5748.69 2506.27 5787.29 2529.11 5101.52 2926.98"/><polygon fill="#54a52f" points="6239.9 2796.78 5555.58 3193.82 5555.58 4249.89 6239.9 3849.63 6239.9 2796.78"/><polygon fill="#4a8c28" points="6114.01 2971.65 5681.47 3222.6 5681.47 3649.84 6114.01 3396.84 6114.01 2971.65"/><polygon fill="#52962a" points="5555.58 4249.89 5518.42 4226.22 5518.42 3170.15 5555.58 3193.82 5555.58 4249.89"/><polygon fill="#498927" points="5555.58 3193.82 5518.42 3170.15 6202.74 2773.11 6239.9 2796.78 5555.58 3193.82"/><polygon fill="#efefef" points="5518.42 4176.72 5127.88 3950.77 5127.88 2956.57 5785.84 2577.82 6161.94 2796.78 5518.42 3170.15 5518.42 4176.72"/><polygon fill="#dbdbdb" points="5127.88 2956.57 5518.42 3170.15 5518.42 4176.72 5127.88 3950.77 5127.88 2956.57"/><polygon fill="#437a23" points="6239.9 2796.78 5748.69 2506.27 5830.76 2461.08 6322.24 2750.85 6239.9 2796.78"/><polygon fill="#54a52f" points="5787.29 2529.11 6202.74 2773.11 6161.94 2796.78 5785.84 2577.82 5787.29 2529.11"/><polygon fill="#437a23" points="6322.24 2750.85 6322.24 3804.44 6239.9 3849.63 6239.9 2796.78 6322.24 2750.85"/><polygon fill="#449ab7" points="6814.24 3154.51 6129.92 3551.55 6129.92 4607.62 6814.24 4207.35 6814.24 3154.51"/><polygon fill="#53acd3" points="6398.79 2910.5 5713.02 3308.38 5713.02 4364.45 6397.33 3964.18 6398.79 2910.5"/><polygon fill="#449ab7" points="5713.02 4364.45 5675.86 4340.77 5675.86 3284.71 5713.02 3308.38 5713.02 4364.45"/><polygon fill="#34859b" points="5713.02 3308.38 5675.86 3284.71 6360.18 2887.67 6398.79 2910.5 5713.02 3308.38"/><polygon fill="#53acd3" points="6851.4 3178.18 6167.08 3575.22 6167.08 4631.29 6851.4 4231.02 6851.4 3178.18"/><polygon fill="#3c91af" points="6725.51 3353.04 6292.97 3604 6292.97 4031.23 6725.51 3778.24 6725.51 3353.04"/><polygon fill="#449ab7" points="6167.08 4631.29 6129.92 4607.62 6129.92 3551.55 6167.08 3575.22 6167.08 4631.29"/><polygon fill="#34859b" points="6167.08 3575.22 6129.92 3551.55 6814.24 3154.51 6851.4 3178.18 6167.08 3575.22"/><polygon fill="#efefef" points="6129.92 4558.12 5739.38 4332.17 5739.38 3337.97 6397.33 2959.22 6773.44 3178.18 6129.92 3551.55 6129.92 4558.12"/><polygon fill="#dbdbdb" points="5739.38 3337.97 6129.92 3551.55 6129.92 4558.12 5739.38 4332.17 5739.38 3337.97"/><polygon fill="#2f7a8c" points="6851.4 3178.18 6360.18 2887.67 6442.26 2842.48 6933.74 3132.24 6851.4 3178.18"/><polygon fill="#47a0bf" points="6398.79 2910.5 6814.24 3154.51 6773.44 3178.18 6397.33 2959.22 6398.79 2910.5"/><polygon fill="#2f7a8c" points="6933.74 3132.24 6933.74 4185.83 6851.4 4231.02 6851.4 3178.18 6933.74 3132.24"/><polygon fill="#c16b2b" points="3597.94 4315.37 4730.09 4967.77 5536.7 4501.83 4407.12 3846.52 3597.94 4315.37"/><polygon fill="#d37b33" points="3597.94 4125.3 4730.09 4777.69 5536.7 4311.76 4407.12 3656.45 3597.94 4125.3"/><polygon fill="#a85c29" points="3597.94 4125.3 3597.94 4147.02 4730.02 4799.31 4730.09 4777.69 3597.94 4125.3"/><polygon fill="#b7672c" points="4730.02 4799.31 5536.7 4333.48 5536.7 4311.76 4730.09 4777.69 4730.02 4799.31"/><polygon fill="#a85c29" points="3597.94 4293.76 3597.94 4315.48 4730.02 4967.77 4730.09 4946.16 3597.94 4293.76"/><polygon fill="#b7672c" points="4730.02 4967.77 5536.7 4501.94 5536.7 4480.22 4730.09 4946.16 4730.02 4967.77"/><polygon fill="#c16b2b" points="3597.94 4293.76 3726.35 4221.01 3753.1 4236.42 3622.56 4307.94 3597.94 4293.76"/><polygon fill="#c16b2b" points="5536.7 4480.22 5409.13 4407.15 5374.48 4427.15 5422.66 4463.81 5507.44 4497.12 5536.7 4480.22"/><polygon fill="#a85c29" points="3597.94 4125.3 3597.94 4315.48 3620.87 4328.05 3620.87 4138.51 3597.94 4125.3"/><polygon fill="#c16b2b" points="3620.87 4280.77 3620.87 4160.23 3726.35 4221.01 3620.87 4280.77"/><polygon fill="#c6c6c6" points="3626.91 4163.92 3626.91 4302.7 4730.02 4934.47 4730.02 4799.92 3626.91 4163.92"/><polygon fill="#e5e5e5" points="4730.02 4799.31 5510.91 4349.01 5510.91 4482.37 4730.02 4934.47 4730.02 4799.31"/><path fill="#bc6626" d="M3945.8,4057.3c-29.69,17.25-29.76,45.57-.13,62.94l239.16,140.21c29.63,17.36,78.16,17.45,107.84.19l355.14-206.5c29.69-17.26,29.67-45.48,0-62.7L4407.19,3852c-29.71-17.22-78.32-17.2-108,.05Z"/><polygon fill="#c16b2b" points="3597.94 4098.38 4730.09 4750.78 5536.7 4284.84 4407.12 3629.53 3597.94 4098.38"/><polygon fill="#d37b33" points="3597.94 3908.31 4730.09 4560.7 5536.7 4094.77 4407.12 3439.46 3597.94 3908.31"/><polygon fill="#a85c29" points="3597.94 3908.31 3597.94 3930.03 4730.02 4582.32 4730.09 4560.7 3597.94 3908.31"/><polygon fill="#b7672c" points="4730.02 4582.32 5536.7 4116.48 5536.7 4094.77 4730.09 4560.7 4730.02 4582.32"/><polygon fill="#a85c29" points="3597.94 4076.77 3597.94 4098.49 4730.02 4750.78 4730.09 4729.17 3597.94 4076.77"/><polygon fill="#b7672c" points="4730.02 4750.78 5536.7 4284.95 5536.7 4263.23 4730.09 4729.17 4730.02 4750.78"/><polygon fill="#c16b2b" points="3597.94 4076.77 3726.35 4004.02 3753.1 4019.43 3622.56 4090.95 3597.94 4076.77"/><polygon fill="#c16b2b" points="5536.7 4263.23 5409.13 4190.16 5374.48 4210.16 5422.66 4246.82 5507.44 4280.13 5536.7 4263.23"/><polygon fill="#a85c29" points="3597.94 3908.31 3597.94 4098.49 3620.87 4111.06 3620.87 3921.52 3597.94 3908.31"/><polygon fill="#c16b2b" points="3620.87 4063.78 3620.87 3943.25 3726.35 4004.02 3620.87 4063.78"/><polygon fill="#c6c6c6" points="3626.91 3946.93 3626.91 4085.71 4730.02 4717.48 4730.02 4582.93 3626.91 3946.93"/><polygon fill="#e5e5e5" points="4730.02 4582.32 5510.91 4132.02 5510.91 4265.38 4730.02 4717.48 4730.02 4582.32"/><path fill="#bc6626" d="M3945.8,3840.31c-29.69,17.25-29.76,45.57-.13,62.94l239.16,140.21c29.63,17.36,78.16,17.45,107.84.19l355.14-206.5c29.69-17.26,29.67-45.48,0-62.7L4407.19,3635c-29.71-17.22-78.32-17.2-108,0Z"/></svg>