<svg xmlns="http://www.w3.org/2000/svg" enable-background="new 0 0 1500 1000" viewBox="0 0 1500 1000"><path fill="#ebebff" d="M1207.68,735.9c-33.78,7.89-59.52,16.79-80.9,25.28c-0.97,0.38-1.91,0.77-2.86,1.14    c-23.69,9.54-42.01,18.48-60.23,24.86c-5.15,1.79-10.29,3.39-15.55,4.74c-5.32,1.37-10.76,2.48-16.44,3.28    c-12.25,1.74-25.59,2.06-41.29,0.48c-1.89-0.18-3.82-0.4-5.79-0.65c-0.79-0.1-1.58-0.19-2.4-0.3c-0.19-0.02-0.38-0.05-0.58-0.07    c-86.24-10.46-310.86-24.33-384.75-8.58c-33.47,7.14-78.03,13.42-126.49,12.94c-0.84,0-1.68-0.01-2.53-0.02    c-4.34-0.06-8.72-0.18-13.13-0.37c-1.96-0.07-3.93-0.16-5.91-0.27c-3.14-0.16-6.3-0.35-9.46-0.57    c-7.29-0.53-14.63-1.22-21.99-2.11c-1.64-0.18-3.27-0.39-4.91-0.61c-3.58-0.47-7.17-0.99-10.76-1.55    c-2.54-0.4-5.08-0.82-7.63-1.27c-9.39-1.66-18.79-3.64-28.16-6.02c-2.5-0.63-4.99-1.28-7.49-1.96    c-24.54-6.75-48.72-16.15-71.71-28.9c-105.23-58.33-116.66-57.21-118.24-77.59c-1.79-23.11,21.29-29.55,52.01-41.58    c3.82-1.49,7.76-3.07,11.79-4.79c6.22-2.65,12.66-5.61,19.17-9.04c9.08-4.78,18.31-10.46,27.38-17.48    c1.84-1.44,3.68-2.92,5.5-4.46c5.88-4.98,11.66-10.57,17.24-16.9c1.4-1.58,2.79-3.21,4.16-4.89c5.23-6.39,10.25-13.47,14.99-21.35    c0.42-0.69,0.84-1.38,1.23-2.08c0,0,0,0,0-0.01c5.01-8.54,9.69-18,13.94-28.51c0.04-0.11,0.08-0.22,0.14-0.33    c11.8-29.22,21.78-53.18,31.22-72.62c0-0.01,0-0.01,0-0.01c7.66-15.75,14.96-28.54,22.58-38.77    c24.96-33.49,53.46-39.57,109.5-32.32c94.37,12.21,100.86-69.02,176.82-146.87c75.94-77.85,202.84-41.57,291.79,72.76    c56.55,72.7,110.47,73.95,157.58,75.48c9.89,0.32,19.48,0.66,28.73,1.67c10.43,1.14,20.44,3.14,29.95,6.96    c5.07,2.03,10.01,4.57,14.79,7.78c25.49,17.08,28.6,46.8,31.85,79.04c0.85,8.42,1.7,17,2.96,25.58    c2.11,14.35,5.39,28.68,11.67,42.14c6.54,14.03,16.38,27.12,31.63,38.3c6.26,4.59,13.44,8.88,21.68,12.76    c1.78,0.85,3.52,1.69,5.19,2.54c9.2,4.65,16.85,9.4,23.03,14.22C1384.93,660.06,1315.54,710.67,1207.68,735.9z"/><path fill="#bdbdff" d="M287.57,641.22c-3.17-40.96,91.48-16.29,133.61-120.57s55.12-124.71,130.43-114.96    c75.32,9.75,80.49-55.08,141.11-117.22s161.89-33.18,232.87,58.07c70.99,91.25,136.78,41.43,184.39,73.32    c47.61,31.89-2.6,119.07,79.64,157.88c82.24,38.81,24.24,87.19-72.72,109.86s-111.05,55.57-178.02,47.2s-249.77-19.86-309.43-7.14    c-59.67,12.72-163.55,22.04-247.52-24.52C297.96,656.58,288.83,657.48,287.57,641.22z" opacity=".4"/><path fill="#9595f0" d="M396.27,637.44c-2.33-30.09,67.19-11.97,98.14-88.57c30.95-76.6,40.49-91.61,95.81-84.45    c55.32,7.16,59.13-40.46,103.65-86.1c44.52-45.64,118.91-24.37,171.06,42.65c52.14,67.02,100.47,30.43,135.45,53.86    c34.97,23.42-1.91,87.46,58.5,115.97c60.41,28.51,17.81,64.04-53.42,80.7c-71.22,16.66-81.57,40.82-130.77,34.67    c-49.19-6.16-183.47-14.59-227.29-5.24c-43.83,9.35-120.14,16.19-181.82-18.01S397.2,649.39,396.27,637.44z" opacity=".4"/><path fill="#00e663" d="M451.26,791.18c1.12,2.5,2.28,4.98,3.46,7.46c-1.96-0.07-3.93-0.16-5.91-0.27      c-3.14-0.16-6.3-0.35-9.46-0.57c-7.29-0.53-14.63-1.22-21.99-2.11c-1.64-0.18-3.27-0.39-4.91-0.61      c-3.58-0.47-7.17-0.99-10.76-1.55c-8.25-8-14.39-18.56-17.23-31.12c-0.35-1.54-0.67-3.07-0.95-4.6      c-2.33-12.61-2.32-24.53-0.04-36.65c0.92-4.99,2.23-10.02,3.93-15.14c0.1-0.31,0.2-0.63,0.31-0.94      c1.19-3.51,2.11-6.93,2.8-10.32c0.25-1.26,0.48-2.5,0.67-3.75c1.71-10.98,0.96-21.67-1.51-33.38c-0.9-4.28-1.56-8.57-1.89-12.84      c-0.18-2.16-0.28-4.32-0.28-6.48c0-9.81,1.84-19.5,6.3-28.88c1.06-2.23,2.16-4.39,3.21-6.52c3.86-7.78,7.32-15.28,7.68-24.57      c0.29-7.56,2.08-14.61,5.24-21.18c1.32-2.75,2.87-5.41,4.65-8c3.28-4.76,8.69-9.71,8.92-15.82c0.65-16.5,0.33-32.21,11.29-45.03      c10.56-12.35,20.24-23.05,26.83-38.77c2.89-6.9,10.91-23.35,20.92-19.24c-33.29,49.01-53.71,104.64-60.96,161.74      c0,0.01,0,0.01,0,0.01c-2.62,20.69-3.53,41.58-2.67,62.41c-0.01,0.01,0,0.01,0,0.01c0.03,1.02,0.07,2.02,0.14,3.04      c0.19,4.08,0.46,8.16,0.81,12.22c1.96,24.12,6.3,48.07,13.01,71.49v0.01c1.21,4.25,2.51,8.48,3.9,12.69c0,0,0,0.01,0.01,0.01      C440.9,766.56,445.72,778.99,451.26,791.18z"/><path fill="#00cc58" d="M477.38,784.17c-2.75,5.24-5.98,10.22-9.53,14.84c-4.34-0.06-8.72-0.18-13.13-0.37      c-1.18-2.48-2.35-4.96-3.46-7.46c-5.54-12.19-10.37-24.63-14.47-37.25c-1.39-4.22-2.69-8.45-3.9-12.7      c-6.71-23.42-11.05-47.37-13.01-71.49c-0.35-4.07-0.62-8.15-0.81-12.22c-0.06-1.02-0.11-2.02-0.14-3.04      c-0.86-20.84,0.04-41.73,2.67-62.43c7.24-57.1,27.67-112.73,60.96-161.74c6.55,8.04-3.83,21.15-8.48,27.05      c-10.48,13.32-12.74,26.15-13.99,42.46c-1.21,15.63-11.04,26.22-18.66,38.99c-2.95,4.92-0.66,11.72,0.21,17.11      c1.54,9.54,1.31,18.8-1.49,28.13c-3.14,10.5,0.4,19.27,3.91,28.92c1.61,4.46,2.71,8.88,3.37,13.31      c1.35,9.09,0.89,18.24-0.54,27.83c-0.87,5.83-0.92,11.24-0.06,16.3c1.31,7.86,4.82,14.9,10.92,21.37      c10.64,11.31,19.24,22.06,25.23,36.92c0.98,2.41,1.75,4.86,2.35,7.31C489.26,752.23,485.26,769.21,477.38,784.17z"/><path fill="#00e663" d="M397.87,251.38c-62.68,171.2-29.48,365.73,85.64,501.83c-44.69,4.67-85.87-31.53-99.77-75.04      c-7.82-24.5-10.52-49.15-14.82-74.52c-3.26-19.23-13.49-35.27-22.66-51.51c-9.15-16.19-15.32-34.11-7.86-52.57      c5.3-13.11,12.16-23.34,11.28-38.44c-0.66-11.24-4.45-16.6-8.65-25.97c-5.17-11.55,3.61-27.75,7.93-37.8      c4.5-10.45,8.32-20.49,7-32.19c-1.2-10.6-4.73-20.64-5.44-31.31c-0.39-5.81,2.81-9.89,5.73-14.38c5.8-8.93,9.7-18.5,13.22-28.61      C374.75,275.69,383.47,258.82,397.87,251.38z"/><path fill="#00cc58" d="M397.87,251.38c-62.68,171.2-29.48,365.73,85.64,501.83c6.73-40.63-3.74-85.29-28.13-116.9      c-12.79-16.58-27.84-33.13-38.27-51.72c-8.48-15.11-8.07-32.62-6.09-49.61c1.94-16.58,1.52-32.14-9.5-44.8      c-8.42-9.68-16.88-17.22-17.83-31.4c-0.72-10.8,2.95-15.45,6.89-24.23c4.66-10.39-3.11-25.24-6.13-34.72      c-3.23-10.11-5.39-20.47-1.27-30.81c3.6-9.01,9.85-16.82,14.06-25.43c2.32-4.75,0.75-9.29-0.15-14.17      c-1.85-10.09-1.14-19.59,0.81-29.6C400.91,284.46,403.19,266.66,397.87,251.38z"/><path fill="#00e663" d="M455.42,768.69c-0.62,7.67-1.98,15.22-4.15,22.49c-0.71,2.42-1.53,4.82-2.44,7.19      c-3.14-0.16-6.3-0.35-9.46-0.57c-7.17-22.34-15.67-43.8-25.37-64.25c-2.28-4.83-4.65-9.6-7.07-14.31      c-4.96-9.65-10.2-19.07-15.71-28.22c-2.25-3.76-4.55-7.46-6.89-11.13c-20.77-32.51-44.91-61.56-71.74-86.5      c-3.61-3.36-7.28-6.65-10.98-9.85c-9.77-8.47-19.87-16.38-30.27-23.75c-46.63-33.05-99.23-54.9-155.06-62.92      c11.43-9.92,27.28-10.16,40.48-7.99c8.79,1.44,17.34,2.28,26.25,1.06c4.47-0.62,8.76-1.69,12.8,1.38      c7.42,5.63,13.2,13.59,20.36,19.64c7.9,6.68,16.77,7.81,26.21,8.51c5.65,0.41,13.73,0.33,20.53,2.66      c4.14,1.42,7.8,3.74,10.13,7.59c5.02,8.27,7.3,14.29,15.16,20.14c2.49,1.85,4.96,3.18,7.43,4.14c8.03,3.12,16.16,2.39,25.1,3.3      h0.03c1.15,0.13,2.27,0.3,3.36,0.54c14.53,3.14,24,16.36,31.32,31.28c1.58,3.23,3.14,6.49,4.73,9.74      c1.05,2.15,2.1,4.3,3.19,6.41c2.54,5,5.22,9.9,8.19,14.51c3.39,5.25,7.18,10.13,11.63,14.39c1.46,1.39,2.92,2.78,4.38,4.15      c5.03,4.73,10.07,9.34,15.02,14.04c5.93,5.59,11.75,11.28,17.34,17.38c3.75,4.1,7.4,8.39,10.93,12.94      c14.07,18.22,23.1,43.04,24.72,68.24C455.92,756.85,455.88,762.8,455.42,768.69z"/><path fill="#00ff6e" d="M439.36,797.8c-7.29-0.53-14.63-1.22-21.99-2.11c-1.53-1.15-3.04-2.35-4.52-3.6      c-11.29-9.37-21.3-21.04-29.32-34.28c-5.29-8.74-9.71-18.18-13.05-28.09c-2.87-8.49-5.56-17.36-8.41-26.19      c-3.74-11.56-7.79-23.05-12.93-33.46c-7.37-14.92-20.2-22.7-33.32-28.76c-12.81-5.93-23.88-13.57-28.41-29.71      c-1.07-3.84-2-7.57-3.06-11.14c-1.61-5.4-3.54-10.38-6.76-14.65c-1.5-1.98-3.26-3.78-5.41-5.41c-7.5-5.7-12.41-4.46-20.41-4.89      c-9.46-0.51-16.94-14.65-22.53-21.88c-5.96-7.71-12.54-14.55-21.74-15.55c-8.03-0.86-16.31,1.31-24.29,1.21      c-4.41-0.06-7.04-3.64-10.19-6.74c-6.52-6.42-13.69-10.19-21.75-13.05c-12.38-4.39-26.2-10.56-35.02-22.62      c55.84,8.02,108.44,29.87,155.06,62.92c10.4,7.37,20.5,15.28,30.27,23.75c3.71,3.2,7.37,6.49,10.98,9.85      c26.83,24.94,50.97,53.99,71.74,86.5c2.35,3.67,4.64,7.37,6.89,11.13c5.51,9.15,10.75,18.56,15.71,28.22      c2.42,4.72,4.79,9.48,7.07,14.31C423.69,754,432.19,775.45,439.36,797.8z"/><path fill="#00e663" d="M412.85,792.08c-0.11,1.01-0.23,2-0.38,2.99c-3.58-0.47-7.17-0.99-10.76-1.55      c-2.54-0.4-5.08-0.82-7.63-1.27c-16.78-37.02-39.69-69.78-67.18-97.01c-27.49-27.23-59.54-48.94-94.61-63.84      c-26.81-11.41-55.38-18.83-85-21.7c8.59-7.12,20.78-7.67,30.96-6.49c6.79,0.78,13.38,1.15,20.19,0.09      c3.43-0.54,6.71-1.38,9.87,0.64c5.82,3.7,10.41,9.06,16.03,13.06c6.19,4.41,13.03,4.98,20.31,5.22      c1.98,0.07,4.33,0.05,6.82,0.15c6.31,0.26,13.39,1.25,16.94,6.18c4.01,5.59,5.88,9.69,12.02,13.53      c4.3,2.68,8.49,3.61,12.79,3.94c3.97,0.32,8.04,0.14,12.36,0.4c12.69,0.75,20.94,10.22,27.28,21.1      c6.37,10.91,12.31,22.44,22.18,30.4c2.35,1.9,4.68,3.75,7.03,5.6c7.32,5.75,14.57,11.36,21.42,17.64      c3.12,2.87,6.16,5.86,9.09,9.07C407.04,746.06,415.2,769.76,412.85,792.08z"/><path fill="#00ff6e" d="M394.08,792.25c-9.39-1.66-18.79-3.64-28.16-6.02c-2.5-0.63-4.99-1.28-7.49-1.96      c-4.57-6.2-8.41-12.97-11.34-20.13c-5.46-13.37-10.21-28.19-17.53-40.63c-5.95-10.11-15.95-15.17-26.15-19.04      c-9.95-3.77-18.61-8.77-22.4-19.8c-2.9-8.43-4.57-16.22-12.29-21.15c-5.87-3.76-9.62-2.78-15.78-2.88      c-7.29-0.13-13.3-9.7-17.73-14.54c-4.2-4.59-8.76-8.72-14.71-9.9c-0.74-0.15-1.51-0.25-2.3-0.3c-6.18-0.39-12.5,1.3-18.64,1.43      c-3.39,0.07-5.48-2.34-7.96-4.4c-5.14-4.27-10.72-6.69-16.96-8.48c-9.6-2.72-20.35-6.64-27.35-14.75      c29.62,2.88,58.2,10.29,85,21.7c35.06,14.9,67.12,36.6,94.61,63.84C354.39,722.48,377.3,755.23,394.08,792.25z"/><path fill="#00ff6e" d="M483.2,787.96c-4.01,4.19-8.31,7.88-12.82,11.07c-0.84,0-1.68-0.01-2.53-0.02      c-4.34-0.06-8.72-0.18-13.13-0.37c-1.96-0.07-3.93-0.16-5.91-0.27c-3.14-0.16-6.3-0.35-9.46-0.57      c-7.29-0.53-14.63-1.22-21.99-2.11c-1.64-0.18-3.27-0.39-4.91-0.61c-3.58-0.47-7.17-0.99-10.76-1.55      c-2.54-0.4-5.08-0.82-7.63-1.27c-9.39-1.66-18.79-3.64-28.16-6.02c-17.11-19.52-26.98-40.86-31.96-67.39      c-1.63-8.6-3.98-16.37-7.06-23.6c-5.15-12.04-12.33-22.61-21.57-33.15c-4.47-5.09-8.56-10.44-12.11-16.07      c-7.7-12.2-12.94-25.76-14.37-41.13c-0.06-0.66-0.12-1.33-0.17-2c-0.42-5.85-0.62-11.54-1.08-17.1c-0.73-8.91-2.16-17.5-6.28-26      c-0.15-0.32-0.31-0.65-0.48-0.97c-5.84-11.49-8.37-23.77-7.96-36.68c0.03-1.47,0.12-2.96,0.24-4.46      c0.65-7.89,3.58-17.55-0.13-24.85c-9.99-19.71-20.58-37.82-16.44-60.64c4-21.97,8.07-41.39,5.35-64.45      c-1.19-10.12-2.76-35.06,11.33-37.44c-0.98,13.08-1.46,26.11-1.46,39.09c0,1.78,0.01,3.56,0.03,5.33      c0.02,2.34,0.05,4.68,0.12,7.01c0.03,1.55,0.07,3.1,0.13,4.64c0.02,0.67,0.04,1.35,0.07,2.02c0.13,3.66,0.3,7.3,0.51,10.94      c0.1,1.65,0.19,3.29,0.31,4.94c0.03,0.64,0.08,1.28,0.13,1.93c0.12,1.68,0.24,3.36,0.38,5.03c0.15,1.95,0.32,3.9,0.5,5.84      c0,0.03,0,0.07,0.01,0.1c0.17,1.91,0.36,3.82,0.55,5.72c0.01,0.11,0.02,0.23,0.04,0.35c0.33,3.18,0.68,6.36,1.07,9.53      c0.03,0.27,0.06,0.55,0.1,0.81c0.11,0.81,0.2,1.62,0.31,2.43c0.39,3.08,0.82,6.15,1.26,9.21c0.14,0.91,0.28,1.83,0.41,2.74      c0.22,1.49,0.46,2.97,0.7,4.47c0.25,1.62,0.53,3.24,0.81,4.87c0.12,0.71,0.24,1.43,0.37,2.14c0.27,1.54,0.54,3.08,0.83,4.63      c0.35,1.93,0.72,3.86,1.1,5.78c0.31,1.58,0.62,3.15,0.95,4.72c0.37,1.82,0.75,3.63,1.16,5.44c0.17,0.83,0.36,1.68,0.55,2.51      c0.03,0.17,0.06,0.34,0.11,0.5c0.3,1.36,0.61,2.71,0.92,4.07c0.37,1.63,0.76,3.27,1.16,4.9c0.53,2.17,1.06,4.33,1.61,6.49      c0.49,1.88,0.98,3.77,1.49,5.65c0.48,1.78,0.96,3.55,1.46,5.33c0.61,2.17,1.23,4.34,1.87,6.51c1,3.4,2.04,6.8,3.11,10.18      c0.06,0.23,0.14,0.47,0.21,0.7c0.32,1.01,0.64,2.01,0.98,3.02c0.49,1.53,0.99,3.06,1.51,4.58c0.19,0.58,0.38,1.15,0.58,1.74      c0.32,0.96,0.65,1.92,0.99,2.88c0.91,2.65,1.85,5.3,2.81,7.93c0.3,0.82,0.59,1.65,0.9,2.46c0.56,1.52,1.13,3.03,1.7,4.54      c0.01,0.02,0.02,0.05,0.03,0.08c0.69,1.82,1.39,3.62,2.1,5.41c0.17,0.43,0.34,0.87,0.51,1.3c0.74,1.87,1.5,3.75,2.27,5.6      c0.7,1.7,1.4,3.4,2.12,5.09c0.2,0.48,0.41,0.97,0.63,1.46c0.73,1.72,1.48,3.44,2.23,5.14c0.08,0.18,0.16,0.37,0.24,0.56      c1.73,3.91,3.51,7.79,5.34,11.65c0.48,1.03,0.97,2.06,1.47,3.07c0,0.01,0.01,0.01,0.01,0.01c0.62,1.28,1.24,2.56,1.87,3.84      c0.62,1.27,1.25,2.52,1.88,3.79c0.01,0.02,0.02,0.03,0.03,0.06c0.64,1.26,1.27,2.51,1.91,3.76c0.65,1.27,1.31,2.52,1.97,3.78      c0.66,1.26,1.32,2.51,1.99,3.76c0.67,1.26,1.35,2.5,2.03,3.75c1.26,2.32,2.55,4.63,3.86,6.92c0.3,0.54,0.61,1.07,0.91,1.61      c0.49,0.86,0.99,1.71,1.49,2.57c7.1,12.25,14.72,24.16,22.84,35.71c0.68,0.98,1.37,1.95,2.06,2.92c0.56,0.8,1.14,1.59,1.71,2.38      c0.68,0.95,1.36,1.88,2.05,2.81c2.25,3.07,4.54,6.11,6.86,9.13c0.81,1.05,1.63,2.1,2.44,3.14c3.51,4.49,7.11,8.91,10.78,13.26      c0.87,1.03,1.74,2.06,2.62,3.07c1.83,2.14,3.68,4.26,5.56,6.36c1.05,1.2,2.12,2.39,3.2,3.56c1.07,1.18,2.15,2.35,3.23,3.52      c1.08,1.18,2.18,2.34,3.27,3.5c1.09,1.17,2.2,2.32,3.3,3.46c3.32,3.45,6.69,6.83,10.12,10.17c1.1,1.09,2.22,2.16,3.34,3.22      c0.03,0.03,0.07,0.07,0.11,0.1c1.01,0.97,2.03,1.93,3.05,2.89c1.64,1.53,3.28,3.05,4.94,4.56c2.02,1.84,4.06,3.67,6.11,5.46      c0.96,0.85,1.92,1.68,2.89,2.51c0.97,0.83,1.93,1.67,2.9,2.49c0.97,0.82,1.93,1.63,2.91,2.46c0,0,0.01,0.01,0.02,0.01      c0,0,0,0.01,0.01,0.01c0.05,0.05,0.12,0.1,0.18,0.15c1.31,1.1,2.62,2.18,3.95,3.27c0.33,0.26,0.65,0.53,0.98,0.79      c1.31,1.06,2.61,2.11,3.94,3.16c0.04,0.03,0.1,0.08,0.15,0.11c1.29,1.02,2.58,2.03,3.88,3.03c1.83,1.43,3.68,2.84,5.53,4.24      c0.17,0.13,0.34,0.25,0.52,0.38c1.33,1.01,2.67,2,4.01,2.97c0.55,0.41,1.1,0.81,1.66,1.21c1.4,1.02,2.8,2.02,4.23,3.03      c0.48,0.34,0.97,0.69,1.44,1.02c1.44,1.02,2.9,2.02,4.35,3.02c0.12,0.08,0.22,0.16,0.34,0.24c1.59,1.07,3.19,2.16,4.8,3.22      c0.2,0.14,0.4,0.27,0.61,0.4C479.31,785.45,481.25,786.71,483.2,787.96z"/><path fill="#00e663" d="M263.24,330.32C249.42,515.51,334.73,693,483.21,787.96c9.17-37.49,5.7-85.27-25.35-109.8      c-16.5-13.04-33.28-19.43-52.77-25c-18.36-5.25-29.73-17.25-36.88-36.18c-6.85-18.15-15.53-33.63-29.99-45.96      c-10.27-8.76-20.02-16.45-23.27-30.95c-2.89-12.88-8.64-23.85-16.6-33.87c-4.5-5.67-11.53-11.95-11.38-19.82      c0.39-20.36,4.69-39.77-4.1-58.86c-9.18-19.94-14.96-36.51-11.69-59.57C272.63,357.73,275.93,335,263.24,330.32z"/><path fill="#00cc58" d="M1072.02,659.11c-0.9,3.94-2.1,7.85-3.54,11.71c-3.97,10.68-6.14,20.67-6.01,31.35      c0.01,1.07,0.04,2.15,0.11,3.24c0.18,3.28,0.58,6.64,1.2,10.11c0.05,0.31,0.11,0.62,0.16,0.92c2.2,12.65,2.27,24.36,0.01,36.04      c-1.11,5.7-2.77,11.38-5.02,17.17c-2.89,7.44-7.01,13.84-12,19.12c-4.3,1.5-8.59,2.83-12.98,3.96      c-4.44,1.14-8.98,2.07-13.72,2.74c-10.22,1.45-21.35,1.72-34.45,0.4c9.56-13.59,18.04-27.8,25.4-42.5      c1.86-3.72,3.65-7.46,5.37-11.24c11.12-24.36,19.28-49.92,24.46-76.1c0.19-0.94,0.37-1.89,0.55-2.83      c3.67-19.34,5.71-39.02,6.1-58.8c1.08-54.56-10.35-109.86-34.75-161c9.95-2.25,15.17,14.4,16.93,21.32      c4,15.76,11.58,27.31,19.76,40.55c8.48,13.74,6.03,28.39,4.35,43.93c-0.62,5.75,3.75,11.24,6.17,16.21      c1.31,2.71,2.4,5.45,3.25,8.24c2.05,6.64,2.76,13.52,1.99,20.64c-0.95,8.73,1.26,16.31,3.79,24.2c0.69,2.16,1.42,4.37,2.1,6.62      C1074.77,636.64,1074.57,648.01,1072.02,659.11z"/><path fill="#00e663" d="M1047.66,604.38c-0.39,19.78-2.43,39.46-6.1,58.8c-0.18,0.94-0.36,1.89-0.55,2.83      c-5.19,26.19-13.35,51.75-24.46,76.1c-1.72,3.78-3.51,7.52-5.37,11.24c-7.37,14.7-15.84,28.9-25.4,42.5      c-1.58-0.15-3.19-0.33-4.83-0.54c-0.66-0.09-1.32-0.16-2-0.25c-0.16-0.02-0.32-0.04-0.49-0.06c-0.13-0.22-0.27-0.44-0.4-0.67      c-3.58-5.94-6.68-12.42-9.02-19.14c-5.31-15.24-6.7-31.76-0.81-46.29c0.9-2.21,1.96-4.38,3.21-6.48      c7.66-12.95,17.17-21.63,28.68-30.52c6.59-5.09,10.85-11.12,13.16-18.26c1.5-4.6,2.19-9.67,2.17-15.25      c-0.02-9.19,0.82-17.82,3.34-26.11c1.22-4.04,2.85-8.01,4.98-11.92c4.6-8.48,9.13-16.11,7.63-26.44      c-1.32-9.16-0.27-17.86,2.48-26.54c1.56-4.9,4.64-10.9,2.56-15.97c-5.38-13.17-13.11-24.64-12.09-39.44      c1.07-15.46,0.74-27.82-7.23-41.96c-3.53-6.25-11.43-20.17-4.21-26.65C1037.31,494.51,1048.74,549.82,1047.66,604.38z"/><path fill="#00cc58" d="M1116.78,289.51c35.05,170.12-22.8,346.79-149.23,455.75c41.15,11.49,84.66-15.81,103.66-54.29      c10.69-21.67,16.61-44.29,24.13-67.34c5.7-17.46,17.47-30.84,28.29-44.57c10.79-13.68,19.03-29.47,14.59-47.92      c-3.15-13.11-8.16-23.77-5.25-37.75c2.16-10.41,6.45-14.81,11.67-22.92c6.43-9.98,0.45-26.53-2.21-36.62      c-2.77-10.49-4.96-20.5-2.11-31.22c2.58-9.72,7.27-18.55,9.4-28.42c1.16-5.38-1.27-9.7-3.38-14.37      c-4.2-9.28-6.52-18.85-8.42-28.87C1135.07,315.93,1129.23,298.76,1116.78,289.51z"/><path fill="#00e663" d="M1116.78,289.51c35.05,170.12-22.8,346.79-149.23,455.75c-0.7-39.07,15.24-79.18,42.41-104.86      c14.25-13.47,30.6-26.55,42.92-42.28c10.01-12.79,12.04-29.22,12.53-45.43c0.47-15.82,3.01-30.3,15.06-40.39      c9.21-7.71,18.16-13.41,21-26.53c2.17-9.99-0.63-14.92-3.11-23.76c-2.93-10.46,6.38-23.11,10.52-31.5      c4.41-8.94,7.86-18.29,5.43-28.61c-2.12-9-6.9-17.31-9.65-26.02c-1.51-4.81,0.58-8.81,2.09-13.23      c3.12-9.14,3.76-18.14,3.32-27.82C1109.39,319.96,1109.7,302.95,1116.78,289.51z"/><path fill="#00e663" d="M1383.75,622.13c-46.52-5.29-92.61-1.26-136.28,11.07c-28.03,7.9-55.06,19.22-80.57,33.68      c-38.36,21.75-73.27,50.58-102.95,85.59c-10.71,12.63-20.73,26.06-30,40.25c-4.44,1.14-8.98,2.07-13.72,2.74      c-2.93-17.86,0.29-36.29,7.76-52.59c1.39-3.06,2.94-6.04,4.64-8.93c6.6-11.33,15.3-21.21,25.33-28.58      c1.5-1.1,3.01-2.16,4.52-3.19c1.33-0.91,2.66-1.78,4-2.64c12.06-7.73,24.66-13.76,37.41-20.18c2.35-1.18,4.7-2.37,7.06-3.59      c13.79-7.14,23.61-19.66,33.82-31.29c10.07-11.5,22.11-20.83,37.52-18.69c0.14,0.02,0.29,0.04,0.43,0.06      c11.11,1.69,20.4,5.38,31.61,1.23c4.74-1.75,7.83-3.98,10.73-6.63c2.21-2,4.31-4.25,6.95-6.73c7.57-7.1,21.8-3.07,30.37-1.55      c8.91,1.58,17.36,2.67,25.91-1.1c7.74-3.42,14.53-8.75,22.43-11.75c4.31-1.64,8.11,0.24,12.17,1.77      c8.07,3.06,16.18,4.32,24.61,5.12C1360.15,607.4,1374.88,611.23,1383.75,622.13z"/><path fill="#00cc58" d="M1383.75,622.13c-10.34,8.06-24.31,10.05-36.62,10.88c-8,0.54-15.34,2.05-22.56,5.92      c-3.48,1.87-6.56,4.26-10.67,3.3c-7.45-1.73-14.78-5.44-22.4-6.56c-8.74-1.29-16.09,2.93-23,8c-0.58,0.43-1.19,0.9-1.82,1.4      c-6.36,5.08-14.94,13.31-23.05,11.72c-7.53-1.47-11.87-3.63-19.87-0.58c-10.5,4-14.29,13.07-19.7,22.58      c-7.08,12.44-18.75,16.29-31.71,18.31c-13.29,2.07-26.62,5.63-36.12,16.42c-11.7,13.25-20.81,30.08-30.46,44.95      c-1.92,2.96-4,5.83-6.2,8.6c-0.81,0.31-1.6,0.64-2.38,0.95c-19.77,7.96-35.06,15.42-50.27,20.74c-4.3,1.5-8.59,2.83-12.98,3.96      c9.26-14.19,19.29-27.62,30-40.25c29.69-35.01,64.59-63.84,102.95-85.59c25.51-14.46,52.54-25.78,80.57-33.68      C1291.14,620.87,1337.23,616.84,1383.75,622.13z"/><g><path fill="#00e663" d="M1237.28,421.6c-5.73,21.14-4.58,39.96-3.87,61.15c0.74,22-11.66,37.26-23.73,54.1      c-4.48,6.23-3.06,15.72-3.54,23.21c-0.66,10.2-3.09,19.71-7.5,28.4c-1.55,3.05-3.34,6.01-5.39,8.86      c-6.3,8.78-8.85,18.34-10.98,28.45c-0.8,3.78-1.54,7.62-2.41,11.53c-2.47,11.17-6.98,20.93-12.97,29.58      c-5.57,8.07-12.43,15.17-20.11,21.55c-16.18,13.43-27.42,27.78-34.6,48.52c-4.01,11.55-8.91,21.81-14.99,31.07      c-19.77,7.96-35.06,15.42-50.27,20.74c-4.3,1.5-8.59,2.83-12.98,3.96c-4.44,1.14-8.98,2.07-13.72,2.74      c-10.22,1.45-21.35,1.72-34.45,0.4c-1.58-0.15-3.19-0.33-4.83-0.54c-0.66-0.09-1.32-0.16-2-0.25c-0.3-0.23-0.59-0.48-0.89-0.72      c-5.52-4.67-10.57-10.19-14.99-16.53c1.99-0.86,3.99-1.73,5.97-2.61c14.51-6.5,28.58-13.79,42.15-21.84      c5.69-3.37,11.29-6.86,16.81-10.49c12.44-8.18,24.44-17.01,35.95-26.44c14.06-11.5,27.4-23.89,39.95-37.09      c34.76-36.51,63.53-79.15,85.02-126.04c23.76-51.82,38.66-108.83,42.94-168.51C1244.69,389.26,1239.79,412.34,1237.28,421.6z"/><path fill="#00ff6e" d="M1231.84,384.79c-12.58,175.43-116.82,327.85-268.78,393.01c-3.42-36.53,6.41-80.66,38.84-98.67      c17.23-9.57,33.8-12.87,52.8-14.98c17.89-1.99,30.19-11.39,39.48-27.96c8.91-15.89,19.15-28.98,34.38-38.21      c10.81-6.55,20.99-12.2,26.03-25.24c4.47-11.59,11.37-20.93,20.19-29.04c4.99-4.58,12.43-9.34,13.38-16.72      c2.44-19.11,1.09-37.95,11.94-54.4c11.34-17.19,19.02-31.77,19.14-53.86C1219.28,408.94,1219.32,387.15,1231.84,384.79z"/></g><g><path fill="#7c95b3" d="M913.43,463.21c0,0-23.15,21.87-27.62,36.88s-44.38,98.35-44.38,98.35l79.83,10.22L913.43,463.21z"/><path fill="#25402b" d="M1007.99,782.57h185.76l38.45-165.87c2.55-10.99-4.29-19.89-15.28-19.89h-145.98    c-10.99,0-21.96,8.91-24.5,19.89L1007.99,782.57z"/><path fill="#375e40" d="M995.93,782.57h185.76l38.45-165.87c2.55-10.99-4.29-19.89-15.28-19.89h-145.98    c-10.99,0-21.96,8.91-24.5,19.89L995.93,782.57z"/><path fill="#87a2c2" d="M1146.69,777.42H905.91c1.91-8.31-3.49-196.23-7.65-229.44c-4.15-33.21,5.43-78.72,15.17-84.78    c9.74-6.06,48.69-23.62,48.69-23.62s-3.71-18.05,47.11-11.01c50.81,7.02,105.21,35.11,105.84,36.08    c0.19,0.29,3.09,28.34,7.07,67.53C1131.47,624.13,1146.69,777.42,1146.69,777.42z"/><path d="M1084.35,777.42c4.38-29.4,12.1-83.39,11.67-96.4c-0.58-18.11-18.69-128.01-18.69-128.01l44.81-20.83    c9.33,91.95,24.55,245.24,24.55,245.24H1084.35z" opacity=".3"/><g opacity=".3"><path d="M1066.98,539.62c-1.22-2.78-2.5-5.47-3.8-8.14c-1.3-2.67-2.69-5.3-4.11-7.97c-1.52-2.65-2.93-5.36-4.98-8.08     c-0.64,3.31-0.5,6.62,0.11,9.8c0.59,3.19,1.67,6.27,3.09,9.16c1.41,2.9,3.22,5.61,5.36,8.04c2.16,2.4,4.62,4.62,7.71,6.05     C1069.36,545.25,1068.18,542.42,1066.98,539.62z"/><path d="M1005.46,567.77c2.57-2.81,4.9-5.83,6.89-9.05c0.98-1.62,1.91-3.27,2.7-4.98c0.79-1.71,1.51-3.46,1.98-5.28     c-2.25,2.98-4.69,5.69-7.22,8.29c-2.54,2.58-5.16,5.02-7.91,7.3c-5.48,4.56-11.38,8.49-17.62,11.81     c-6.26,3.29-12.82,6.04-19.66,8.2c-6.84,2.21-13.9,3.9-21.19,5.59c7.41,1.05,14.99,0.75,22.44-0.58     c7.45-1.32,14.74-3.84,21.5-7.41C994.11,578.06,1000.29,573.37,1005.46,567.77z"/><path d="M1047.55,636.04c-4.59,5.82-9.6,11.22-15.01,16.14c-1.38,1.2-2.73,2.44-4.17,3.56c-1.38,1.2-2.88,2.25-4.32,3.38     c-2.97,2.14-6.01,4.18-9.18,6.06c-6.34,3.77-13.14,6.84-20.29,9.73c7.71-0.2,15.41-2.04,22.62-5.12     c3.61-1.54,7.06-3.45,10.39-5.54c1.62-1.11,3.26-2.21,4.81-3.42c1.57-1.18,3.05-2.49,4.54-3.77c5.82-5.29,10.84-11.42,14.86-18.1     c2-3.35,3.75-6.83,5.22-10.42c0.73-1.8,1.39-3.62,1.95-5.47c0.56-1.85,1.06-3.72,1.36-5.63c-1.97,3.31-4,6.49-6.14,9.59     C1052.05,630.12,1049.85,633.14,1047.55,636.04z"/></g><path fill="#f0aaaa" d="M792.82,649.05c0,0-29.23,26.1-18.45,51.01c10.78,24.91,68.01,20.16,79.51-7.76    c11.5-27.92-36.64-48.53-36.64-48.53L792.82,649.05z"/><path fill="#404040" d="M877.59,340.59c0,0,1.2,17.96,12.45,22.03c11.26,4.07,4.55-22.03,4.55-22.03H877.59z"/><path fill="#f0aaaa" d="M1014.65,439.1c-2.55,9.9-26.18,26.19-38,27.3c-11.81,1.12-22.03-6.07-20.43-10.06    c0.07-0.16,0.11-0.32,0.15-0.51c0.98-4.39-4.62-15.3-4.62-15.3l43.27-68.31l6.27,24.88l7.94,31.46    C1009.22,428.57,1017.21,429.2,1014.65,439.1z"/><path d="M1001.29,397.11c-2.85,21.49-14.96,48.46-29.11,54.93c-7.09,3.24-12.23,4-15.81,3.8    c0.98-4.39-4.62-15.3-4.62-15.3l43.27-68.31L1001.29,397.11z" opacity=".3"/><path fill="#ffc9c9" d="M883.25,332.77c0,0,0.32,21.95,2.47,29.62c2.16,7.66,10.54,14.37,12.21,28.74    c1.68,14.37,9.58,32.57,24.67,40.71c15.09,8.14,26.34,17.48,38.08,14.13c11.73-3.35,31.61-20.83,34.73-47.66    c3.11-26.82-12.69-74.96-12.69-74.96s-47.18-8.38-48.14-8.38C933.62,314.97,883.25,332.77,883.25,332.77z"/><path fill="#404040" d="M858.19,332.21c3.59,13.24,28.74,22.99,44.78,17.24c16.05-5.75,23.56-14.61,36.56-17.24    c13.01-2.63,26.18-2.63,30.01,2.16c3.83,4.79,10.78,14.85,15.81,19.4c5.03,4.55,7.87,11.54,7.87,11.54l7.46-11.78    c0,0,5.75-36.64-2.16-48.61c-7.9-11.97-19.64-9.1-19.64-9.1s-22.75-13.41-40.71-10.06c-17.96,3.35-37.6,13.89-37.6,13.89    S848.13,295.09,858.19,332.21z"/><path fill="#404040" d="M895.19,369.85c-0.46,0-0.92-0.08-1.37-0.26c-1.93-0.76-2.88-2.93-2.12-4.86c0.15-0.38,3.81-9.3,17.35-8.11     c2.06,0.18,3.59,2,3.41,4.07c-0.18,2.06-1.99,3.6-4.07,3.41c-7.88-0.69-9.69,3.34-9.71,3.38     C898.1,368.95,896.68,369.85,895.19,369.85z"/><path fill="#404040" d="M935.18,357.38c-0.74,0-1.48-0.22-2.13-0.66c-1.69-1.17-2.13-3.48-0.97-5.19c0.34-0.5,8.5-12.17,24.03-9.24     c2.04,0.39,3.37,2.35,2.99,4.38c-0.39,2.04-2.35,3.37-4.38,2.99c-10.61-2.01-16.22,5.78-16.45,6.11     C937.53,356.82,936.36,357.38,935.18,357.38z"/><path fill="#ff9191" d="M928.6,405.74c-9.46,1.19-13.06-8.51-3.71-14.26c0.03-0.01,0.07-0.03,0.09-0.04    c0.54-0.27,3.36-1.83,3.55-5.53c0.03-0.42,0.01-0.88-0.05-1.37c-0.58-4.99-1.95-11.88-2.03-12.32c0.39,0.32,10.2,8.56,13.08,18.07    C942.49,399.99,938.05,404.54,928.6,405.74z"/><path d="M935.18,389.02c0,0-4.61,0.19-10.21,2.42c0.54-0.27,3.36-1.83,3.55-5.53    C933.07,386.17,935.18,389.02,935.18,389.02z" opacity=".3"/><path fill="#404040" d="M915.01,377.3c1.59,3.08,1.24,6.43-0.78,7.47c-2.03,1.05-4.96-0.6-6.55-3.68c-1.59-3.08-1.24-6.43,0.78-7.47    C910.48,372.58,913.42,374.23,915.01,377.3z"/><path fill="#404040" d="M952.17,366.28c1.59,3.08,1.24,6.43-0.78,7.47c-2.03,1.05-4.96-0.6-6.55-3.68    c-1.59-3.08-1.24-6.43,0.78-7.47C947.64,361.55,950.57,363.2,952.17,366.28z"/><path fill="#ff9191" d="M967.91,403.14c-0.64-0.82-1.82-0.97-2.63-0.33c-12.38,9.63-32.76,12.69-32.96,12.72     c-1.03,0.15-1.74,1.1-1.59,2.13c0.14,0.93,0.94,1.61,1.85,1.61c0.09,0,0.18-0.01,0.27-0.02c0.87-0.13,21.56-3.22,34.73-13.47     C968.4,405.14,968.55,403.96,967.91,403.14z"/><path fill="#ff9191" d="M956.54,419.66c-3.05,0-10.87,2.21-11.75,2.47c-1,0.29-1.57,1.32-1.29,2.32c0.24,0.82,0.99,1.36,1.8,1.36     c0.17,0,0.34-0.02,0.52-0.07c2.26-0.65,8.58-2.32,10.72-2.32c1.04,0,1.88-0.84,1.88-1.88     C958.41,420.5,957.57,419.66,956.54,419.66z"/><ellipse cx="996.21" cy="358.47" fill="#ffc9c9" rx="13.01" ry="17.88"/><path d="M1002.01,364.12c-0.29,0.49-0.53,1-0.84,1.45c-0.63,0.9-1.35,1.69-2.19,2.25c-0.86,0.53-1.79,0.85-2.76,0.93    c-0.17,0.01-0.33,0.01-0.5,0.01c0.75-0.95,1.42-1.95,2.02-3.05c0.99-1.83,1.78-3.92,1.8-6.27c0.06-1.16-0.21-2.37-0.62-3.51    c-0.11-0.28-0.24-0.54-0.37-0.8c-0.13-0.26-0.25-0.53-0.45-0.81c-0.33-0.54-0.81-1.12-1.55-1.6c-0.74-0.52-1.89-0.69-2.8-0.47    c-0.2,0.06-0.39,0.12-0.57,0.2c0.05-0.28,0.09-0.57,0.15-0.84c0.37-1.69,1.08-3.22,2.24-3.77c0.3-0.13,0.62-0.27,1.01-0.26    c0.39-0.07,0.74-0.01,1.12,0.03c0.71,0.17,1.4,0.59,1.98,1.24c1.14,1.32,1.89,3.18,2.36,5.08c0.09-0.99,0.04-1.99-0.13-2.99    c-0.17-1-0.46-2.01-1.02-2.95c-0.54-0.94-1.39-1.85-2.54-2.32c-0.29-0.09-0.58-0.18-0.88-0.26c-0.3-0.09-0.59-0.08-0.89-0.11    c-0.59-0.08-1.24,0.01-1.86,0.18c-1.27,0.37-2.3,1.28-2.99,2.23c-0.69,0.97-1.15,2.01-1.48,3.04c-0.66,2.09-0.92,4.1-0.95,6.28    c-0.01,0.6,0.28,1.19,0.83,1.53c0.83,0.52,1.92,0.27,2.44-0.55l0.09-0.15c0.37-0.59,0.95-1.32,1.43-1.67    c0.21-0.19,0.38-0.24,0.47-0.28c0,0,0,0,0,0c0.14,0.05,0.61,0.76,0.89,1.43c0.22,0.67,0.42,1.36,0.41,2.13    c0.05,1.51-0.42,3.17-1.14,4.77c-0.7,1.59-1.7,3.2-2.74,4.57l-0.16,0.21c-0.11,0.14-0.19,0.31-0.23,0.5    c-0.16,0.71,0.29,1.41,1,1.57c0.78,0.17,1.37,0.21,2.05,0.21c0.66-0.01,1.32-0.1,1.96-0.26c1.28-0.33,2.51-0.95,3.43-1.87    c0.9-0.93,1.57-2,1.97-3.14c0.21-0.56,0.33-1.15,0.48-1.72c0.07-0.59,0.15-1.16,0.2-1.74L1002.01,364.12z M994.58,355.88    C994.58,355.88,994.58,355.88,994.58,355.88c0.01-0.01,0.02-0.01,0.03-0.02C994.61,355.9,994.62,355.85,994.58,355.88z" opacity=".3"/><polygon fill="#31543a" points="790.65 560.16 811.61 683.27 877.95 708.89 858.07 593.7"/><polygon fill="#375e40" points="858.07 593.7 955.06 551.79 970.39 672.49 877.95 708.89"/><polygon fill="#d9d5cb" points="790.65 560.16 802.63 550.38 856.75 577.44 858.07 593.7"/><polygon fill="#d9d5cb" points="856.75 577.44 936.02 544.15 955.06 551.79 858.07 593.7"/><path fill="#ffc9c9" d="M1189.39,704.37c-11.26,24.67-92.92,13.65-122.61,9.1c-29.7-4.55-58.68-8.86-58.68-8.86    s-47.89,10.38-63.22,10.7c-9.34,0.2-12.4-4.24-13.36-7.73c-0.62-2.24-0.38-4.09-0.38-4.09s-8.17,0.51-10.58-8.29    c-0.28-1.04-0.49-2.2-0.59-3.52c0,0-22.03-0.32-27.3-9.9c-5.27-9.58,13.25-2.07,25.22-2.39c11.17-0.29,24.3-3.94,26-4.43    c-1.71,0.38-14.41,2.95-26-1.8c-12.45-5.1-23.79-8.62-21.55-15.01c2.23-6.39,25.06,3.52,34,3.52c8.94,0,37.44-9.66,37.44-9.66    l-2.43-19.14c0,0,29.34,11.24,35.41,16.67c6.06,5.43,16.43,20.27,16.43,20.27l98.2-16.75l-1.06-7.39l-2.78-19.43l73.05-8.78    C1184.61,617.44,1200.65,679.7,1189.39,704.37z"/><path d="M1162.01,653.04c0,0-15.65-2.56-46.62,0l-1.06-7.39C1152.59,643.33,1162.01,653.04,1162.01,653.04z" opacity=".3"/><path fill="#8eaacc" d="M1115.07,464.65c0,0,35.28,40.71,51.09,81.42s22.03,75.68,22.03,75.68s-32.09-1.44-86.21,19.64    c0,0-28.26-79.51-27.3-114.95S1115.07,464.65,1115.07,464.65z"/><g opacity=".3"><path d="M1130.98,541.13c1.4,0.34,2.8,0.69,4.2,1.01c0.7,0.15,1.4,0.34,2.11,0.47l2.13,0.35c5.66,1.02,11.47,1.19,17.16,0.73     c-5.56-1.49-11.01-2.64-16.34-4.32c-2.69-0.71-5.31-1.69-7.96-2.48l-3.92-1.4c-1.32-0.42-2.61-0.95-3.9-1.45     c-5.19-1.96-10.32-4.11-15.4-6.44c-5.09-2.32-10.12-4.78-15.22-7.38c3.96,4.17,8.62,7.6,13.49,10.62     c4.89,3.02,10.08,5.54,15.46,7.58C1125.46,539.48,1128.23,540.28,1130.98,541.13z"/><path d="M1151.94,602.82c-4.56,0.55-9.04,1.54-13.42,2.83c-4.37,1.32-8.63,2.95-12.76,4.88c-4.11,1.95-8.13,4.14-11.81,6.91     c4.49-1.01,8.81-2.23,13.11-3.47l12.8-3.82c4.26-1.25,8.5-2.51,12.77-3.7c4.29-1.16,8.57-2.25,13.05-3.37     C1161.15,602.23,1156.5,602.33,1151.94,602.82z"/></g><path d="M951.34,701.85c0,0-6.22,5.35-19.82,5.72c-0.62-2.24-0.38-4.09-0.38-4.09S942.01,704.85,951.34,701.85z" opacity=".3"/><path d="M945.6,689.4c0,0-15.71,5.58-25.03,5.8c-0.28-1.04-0.49-2.2-0.59-3.52C933.5,691.56,945.6,689.4,945.6,689.4    z" opacity=".3"/><path fill="#ffc9c9" d="M805.05,608.79c-5.82,8.14-18.38,19.02-18.38,19.02s-1.23-1.56-2.13-4.01c-1.2-3.23-1.86-8.02,1.49-12.91    c5.91-8.62,18.99-15.17,21.71-9.42C808.48,603.04,807.24,605.72,805.05,608.79z"/><path d="M805.05,608.79c-5.82,8.14-18.38,19.02-18.38,19.02s-1.23-1.56-2.13-4.01c1.61-3.79,4.46-7.45,8.2-10.22    C797.95,609.71,801.99,608.18,805.05,608.79z" opacity=".3"/><path fill="#ffc9c9" d="M807.71,625.77c-4.88,10.02-16,22.94-22.12,16.06c-0.12-0.14-0.24-0.28-0.37-0.44    c-4.96-6.46-1.12-17.56,7.5-23.95c8.62-6.39,14.05-6.39,17.08-0.96C810.68,618.04,809.73,621.66,807.71,625.77z"/><path d="M807.71,625.77c-4.88,10.02-16,22.94-22.12,16.06c1.47-4.26,4.54-8.48,8.73-11.58    C800.17,625.91,804.55,624.51,807.71,625.77z" opacity=".3"/><path fill="#ffc9c9" d="M810.26,640.69c-3.43,8.35-12.18,20.13-18.49,19.15c-1.27-0.19-2.43-0.89-3.43-2.24    c-4.66-6.25-1.05-16.98,7.04-23.15c8.09-6.18,13.19-6.18,16.04-0.93C812.12,634.8,811.58,637.49,810.26,640.69z"/><path d="M810.26,640.69c-3.43,8.35-12.18,20.13-18.49,19.15c0.7-5.13,3.99-10.66,8.96-14.44    C804.55,642.49,807.7,640.94,810.26,640.69z" opacity=".3"/><path fill="#ffc9c9" d="M794.69,670.94c-4.22-5.66-0.95-15.38,6.38-20.97c7.33-5.6,11.95-5.6,14.53-0.84    C818.19,653.88,801.89,680.59,794.69,670.94z"/><path d="M928.17,725.45c3.68,2.83,7.51,5.25,11.44,7.47c3.92,2.23,7.93,4.23,12.02,6.01    c8.16,3.6,16.63,6.31,25.28,8.36l3.25,0.74c1.08,0.25,2.18,0.42,3.27,0.64c2.17,0.49,4.39,0.76,6.58,1.17    c4.42,0.63,8.86,1.24,13.34,1.6c8.97,0.84,18.04,1.11,27.32,1.42c-8.87,2.76-18.15,4.13-27.5,4.43c-4.68,0.2-9.37-0.06-14.05-0.45    c-4.67-0.51-9.34-1.23-13.93-2.32c-9.18-2.18-18.11-5.6-26.24-10.42c-4.06-2.4-7.92-5.13-11.46-8.23    c-1.77-1.55-3.47-3.16-5.04-4.91C930.9,729.24,929.4,727.44,928.17,725.45z" opacity=".3"/></g><g><path fill="#25402b" d="M504.9,782.57H319.14l-38.45-165.87c-2.55-10.99,4.29-19.89,15.28-19.89h145.98    c10.99,0,21.96,8.91,24.5,19.89L504.9,782.57z"/><path fill="#375e40" d="M516.97,782.57H331.21l-38.45-165.87c-2.55-10.99,4.29-19.89,15.28-19.89h145.98    c10.99,0,21.96,8.91,24.5,19.89L516.97,782.57z"/><path fill="#404040" d="M548.38,374.83c0,0,21.11-61.88-62.42-60.79c-83.53,1.08-79.73,77.02-80.27,105.94    c-0.54,28.93-12.29,65.09-24.95,78.83c-12.66,13.74,14.46,27.48,32.54,25.67c18.08-1.81,94.01-5.06,94.01-5.06    s20.61-0.72,20.61-2.17s-10.49-52.07,3.98-82.08C546.34,405.16,558.36,390.79,548.38,374.83z"/><path fill="#ffc9c9" d="M748.2,534.67c-3.53,12.75-18.99,21.16-35.81,26.03c-16.81,4.89-26.12,6.8-26.12,6.8    s-17.9,71.11-34.71,106.07c-16.81,34.96-49.36,51.23-71.32,35.23c-21.97-16.01-49.36-63.55-49.36-63.55l53.79-31.1l10.3,14.03    l6.69,9.11l59.66-77.35c0,0-0.72-16.3,9.76-24.26c10.48-7.96,36.16-13.13,36.16-13.13s-10.3-31-5.96-32.36    c4.33-1.36,16,30.64,16,29.83c0-0.81-3.8-40.13,0-40.4c3.79-0.27,11.66,35.53,11.66,35.53s0.27-43.27,4.61-42.79    c4.33,0.49,6.23,41.43,6.23,41.43s4.07-39.59,8.41-35.79C752.54,481.79,751.72,521.93,748.2,534.67z"/><path d="M601.67,637.3c-8.68,12.11-16.55,31.63-16.55,31.63s-0.54-20.68,9.86-40.74L601.67,637.3z" opacity=".3"/><path fill="#b36c6c" d="M518.14,498.45c0,0,9.76,5.75,23.14,26.19c13.38,20.45,53.88,87.34,53.88,87.34s-27.84,45.19-69.42,47    C484.15,660.8,518.14,498.45,518.14,498.45z"/><path fill="#c27676" d="M530.8,653.21c2.89,20.24,5.6,126.91,5.6,126.91H356.33c0,0,24.41-76.3,21.16-113.51    c-0.55-6.31-1.47-14.49-2.54-23.77c-5.29-45.5-14.58-117.6-5.42-126.32c11.03-10.48,78.1-35.61,78.1-35.61    s66.53,15.37,70.51,17.54c3.97,2.18,39.78,70.88,43.03,100.52C564.42,628.63,530.8,653.21,530.8,653.21z"/><path d="M397.73,680.21c-9.41,31.04-1.27,87.16,1.14,99.91h-42.54c0,0,24.41-76.3,21.16-113.51    c-0.55-6.31-1.47-14.49-2.54-23.77c15.22-33.9,28.99-64.12,28.99-64.12S409.12,642.68,397.73,680.21z" opacity=".3"/><path fill="#f0aaaa" d="M488.62,495.78c0.91,1.5,6.15,15.46-15.94,16.95s-38.56-21.16-36.86-25.77c1.02-2.76,3.86-23.8,5.98-40.28    c1.42-11.06,2.52-20.05,2.52-20.05l4.17-1.72l41.32,51.89c0,0-1.23,10.24-1.4,15.71C488.36,494.2,488.41,495.43,488.62,495.78z"/><path d="M489.81,476.8c0,0-1.23,10.24-1.4,15.71c-3.75,1.21-7.98,1.97-12.66,1.97c-17.32,0-29.26-32.42-33.95-47.79    c1.42-11.06,2.52-20.05,2.52-20.05l4.17-1.72L489.81,476.8z" opacity=".3"/><path fill="#ffc9c9" d="M537.94,384.87c0,0-0.14,8.81-1.49,15.19c-1.36,6.37-6.64,14.78-6.92,18.71    c-0.27,3.93-2.31,16.54-6.24,26.03c-3.93,9.49-21.29,33.22-33.08,36.47c-11.8,3.25-26.58-13.15-32.81-21.83    c-6.24-8.68-16.81-29.83-12.75-49.9c4.07-20.07,9.76-36.61,9.76-36.61l37.83-7.86l29.15,7.05L537.94,384.87z"/><path fill="#404040" d="M548.38,374.83c0,0-4.61,13.7-22.64,17.22c-18.03,3.53-26.58-1.63-16.41-5.56c0,0-15.59,4.61-26.03,4.47    c-10.44-0.14-3.25-5.83-3.25-5.83s-13.97,9.36-20.75,12.61c-6.78,3.25-4.2-4.34-4.2-4.34l-10.92,19.01    c0,0-13.89-12.32-12.08-23.53c1.81-11.21,15.19-45.56,41.4-50.98c26.21-5.42,61.11,4.16,61.11,4.16L548.38,374.83z"/><ellipse cx="439.58" cy="413.93" fill="#ffc9c9" rx="11.3" ry="16.54" transform="rotate(-4.968 439.336 413.718)"/><path d="M445.32,420.28l-0.17-0.13c-1.14-0.86-2.31-1.83-3.31-2.85c-0.98-1.03-1.85-2.16-2.28-3.25    c-0.16-0.53-0.3-1.04-0.19-1.45c0.08-0.48,0.28-1.09,0.51-1.32c0.23-0.26,0.46-0.37,0.92-0.42c0.43-0.03,1.1,0.13,1.54,0.29    l0.24,0.09c0.38,0.14,0.81,0.12,1.19-0.09c0.71-0.38,0.97-1.27,0.59-1.98c-0.79-1.46-1.65-2.74-2.75-3.98    c-0.57-0.6-1.2-1.17-1.95-1.66c-0.73-0.48-1.72-0.89-2.79-0.79c-1.07,0.09-1.98,0.73-2.53,1.42c-0.57,0.7-0.88,1.47-1.12,2.23    c-0.48,1.51-0.62,3.05-0.58,4.57c0.44-1.44,0.99-2.85,1.69-4.08c0.68-1.24,1.74-2.24,2.6-2.08c0.86,0.06,1.88,1.02,2.65,2.09    c0.22,0.3,0.43,0.61,0.64,0.94c-0.97,0.12-2.03,0.58-2.71,1.38c-0.19,0.22-0.35,0.46-0.51,0.7c-0.14,0.24-0.24,0.48-0.36,0.72    c-0.19,0.5-0.35,0.91-0.41,1.48c-0.21,1.13,0.08,2.18,0.4,3.1c0.78,1.78,1.96,3.08,3.2,4.19c0.94,0.83,1.9,1.56,2.94,2.22    c-0.27,0.34-0.56,0.65-0.86,0.91c-0.61,0.52-1.31,0.77-2.09,0.67c-0.81-0.04-1.59-0.6-2.36-1.14c-0.35-0.32-0.74-0.63-1.08-0.98    l-1.03-1.1c0.2,0.46,0.43,0.91,0.65,1.38c0.24,0.45,0.55,0.87,0.84,1.31c0.67,0.8,1.44,1.64,2.62,2.03    c1.16,0.41,2.58,0.17,3.6-0.46c0.52-0.31,0.99-0.67,1.39-1.08c0.42-0.42,0.76-0.81,1.12-1.36    C445.91,421.31,445.8,420.64,445.32,420.28z" opacity=".3"/><path fill="#404040" d="M472.65,406.29c-1.09,0-2.16-0.56-2.75-1.58c-0.89-1.52-0.38-3.47,1.14-4.36     c0.54-0.32,13.34-7.67,21.1,0.17c1.24,1.25,1.23,3.27-0.02,4.51c-1.25,1.24-3.27,1.23-4.51-0.02c-4.24-4.29-13.26,0.8-13.35,0.85     C473.75,406.15,473.2,406.29,472.65,406.29z"/><path fill="#404040" d="M527.02,409.07c-1.08,0-2.14-0.55-2.73-1.54c-2.5-4.16-9.37-1.08-9.44-1.05c-1.6,0.73-3.49,0.03-4.22-1.57     s-0.03-3.49,1.57-4.22c4.18-1.91,13.22-3.62,17.55,3.56c0.91,1.51,0.42,3.47-1.09,4.37     C528.15,408.93,527.58,409.07,527.02,409.07z"/><path fill="#ff9191" d="M492.44,445.14c-8.91-3.92,9.62-24.96,10.36-25.78c-0.15,0.41-2.83,7.66-2.36,11.75    c0.1,0.84,0.4,1.59,0.85,2.28c0.9,1.44,2.36,2.64,3.61,3.9c1.18,1.17,2.18,2.4,2.39,3.92    C507.84,445.14,501.53,449.14,492.44,445.14z"/><path d="M504.9,437.29c-5.23-2.2-9.29,0.28-9.46,0.38c0.08-0.24,1.43-3.79,5.85-4.28    C502.2,434.84,503.65,436.04,504.9,437.29z" opacity=".3"/><path fill="#404040" d="M487.18,417.52c-0.51,3.14-2.52,5.43-4.5,5.11s-3.17-3.13-2.66-6.27c0.51-3.14,2.52-5.43,4.5-5.11    C486.49,411.57,487.69,414.37,487.18,417.52z"/><path fill="#404040" d="M518.39,417.52c-0.51,3.14-2.52,5.43-4.5,5.11c-1.98-0.32-3.17-3.13-2.66-6.27c0.51-3.14,2.52-5.43,4.5-5.11    C517.71,411.57,518.9,414.37,518.39,417.52z"/><path fill="#fff" d="M500.17,458.22c0,0-7.43,1.54-13.76-1.08c-6.33-2.62-10.67-7.77-10.67-7.77s5.6,16.18,13.65,16.54    C497.44,466.27,500.17,458.22,500.17,458.22z"/><g opacity=".3"><path d="M448.13,550.92c7.35,3.29,15.12,5.67,23.05,7.18c3.95,0.85,8,1.2,12.01,1.63c2.02,0.07,4.05,0.16,6.07,0.18     c1.01,0,2.02,0.07,3.03,0.02l3.03-0.19c8.07-0.32,16.05-2.14,23.54-4.89c-8.05-0.3-15.77-0.14-23.48-0.96l-2.88-0.21     c-0.96-0.06-1.91-0.22-2.87-0.33c-1.91-0.25-3.82-0.44-5.72-0.65l-5.68-0.9c-1.9-0.22-3.78-0.64-5.66-1.01     c-7.53-1.43-15.02-3.19-22.45-5.36c-7.46-2.13-14.84-4.55-22.39-7.22c1.47,1.37,3.06,2.61,4.69,3.78     c1.62,1.2,3.31,2.26,5.02,3.33c1.72,1.04,3.48,2.01,5.25,2.96C444.5,549.19,446.3,550.09,448.13,550.92z"/><path d="M478.31,651.52c-6.45,0.74-12.89,1.97-19.16,3.95c-3.13,1.01-6.22,2.2-9.18,3.69c-2.94,1.5-5.82,3.29-8.17,5.62     c3.16-0.93,6.23-1.61,9.35-2.16c3.1-0.56,6.2-1.02,9.3-1.45c6.21-0.84,12.45-1.53,18.71-2.26c6.26-0.72,12.54-1.46,18.86-2.33     c6.31-0.89,12.64-1.87,19.04-3.37c-6.4-1.58-12.87-2.2-19.34-2.45C491.25,650.54,484.76,650.79,478.31,651.52z"/></g><polygon fill="#375e40" points="522.75 687.93 533.32 654.47 597.69 676.17 569.84 756.8 501.51 739.77"/><polygon fill="#31543a" points="597.69 676.17 645.24 656.46 617.39 740.71 569.84 756.8"/><polygon fill="#d9d5cb" points="645.24 656.46 628.78 650.68 595.16 664.78 597.69 676.17"/><polygon fill="#e8e4d9" points="533.32 654.47 554.12 650.68 595.16 664.78 597.69 676.17"/><path fill="#ffc9c9" d="M578.62,713c0,3.8-6.65,6.11-6.65,6.11c0,1.01-0.36,2.01-0.9,2.92c-1.53,2.66-4.52,4.67-4.52,4.67    s0.72,0.72,0.72,2.08v0.01c0,0.68-0.18,1.52-0.72,2.52c-1.62,2.98-6.1,4.2-6.1,4.2s0,0,0.01,0.01c0.05,0.1,0.87,1.55,1.13,3.13    c0.13,0.78,0.12,1.58-0.19,2.28c-0.96,2.17-20.66,13.24-34.03,11.8c-13.38-1.46-55.86-11.3-55.86-11.3    c-43.04-0.36-137.05,0.72-145.37-22.06c-8.32-22.77,0-74.12,0-74.12l61.02,1.99l-4.73,26.62l-1.24,7.01    c31.46,8.94,95.19,32.27,95.19,32.27s13.02-10.44,22.65-15.19c9.62-4.75,23.73-10.03,23.73-10.03s-6.51,19.38-3.66,21.83    c2.85,2.44,19.66,8.4,33.36,5.83C566.14,713,578.62,709.21,578.62,713z"/><path d="M382.43,673.86l-1.24,7.01c-23.31-3.26-37.96,5.96-37.96,5.96S355.55,671.42,382.43,673.86z" opacity=".3"/><path fill="#cc7c7c" d="M369.53,516.53c0,0-16.63,10.12-28.93,44.11c-12.29,33.99-20.25,90.4-20.25,90.4l75.21,2.16    C395.56,653.2,426.66,525.57,369.53,516.53z"/><g opacity=".3"><path d="M365.72,576.24c3.91-3.05,7.57-6.4,10.98-10c3.38-3.62,6.57-7.44,9.1-11.74l-11.37,9.31c-3.76,3.07-7.52,6.12-11.33,9.09     c-3.81,2.98-7.63,5.95-11.52,8.85c-3.85,2.98-7.83,5.77-11.7,8.91c4.71-1.57,9.24-3.65,13.53-6.12     C357.73,582.11,361.82,579.29,365.72,576.24z"/><path d="M366.6,632.58c-3.58,0.36-7.14,0.88-10.66,1.54c-3.53,0.67-7.02,1.47-10.49,2.44c-3.46,0.99-6.91,2.1-10.27,3.62     c3.69,0.2,7.3-0.01,10.88-0.35c3.58-0.36,7.14-0.88,10.66-1.54c3.53-0.66,7.02-1.47,10.49-2.43c3.47-0.98,6.91-2.1,10.27-3.63     C373.79,632.03,370.18,632.24,366.6,632.58z"/></g><path d="M560.45,735.52c0.05,0.1,0.87,1.55,1.13,3.13c-16.79,7.07-25.81,5.13-25.81,5.13s4.2-0.88,8.26-1.76    c4.07-0.88,16.41-6.51,16.41-6.51S560.44,735.51,560.45,735.52z" opacity=".3"/><path d="M566.54,726.7c0,0,0.72,0.72,0.72,2.08v0.01c-12.87,5.54-23.97,5.29-23.97,5.29    C554.13,731.86,566.54,726.7,566.54,726.7z" opacity=".3"/><path d="M571.97,719.11c0,1.01-0.36,2.01-0.9,2.92c-13.89,5.52-25.27,5.82-25.27,5.82    C556.31,725.75,571.97,719.11,571.97,719.11z" opacity=".3"/></g><rect width="782.51" height="36.49" x="441.8" y="769.13" fill="#375e40"/><rect width="147.12" height="36.49" x="294.68" y="769.13" fill="#4c8258" transform="rotate(-180 368.24 787.372)"/><g><path fill="#513e80" d="M847.9,736.19v32.94H696.07c-8.1,0-14.68-6.57-14.68-14.68v-3.58c0-8.1,6.57-14.68,14.68-14.68H847.9z"/><path fill="#eeece7" d="M847.9,737.98v29.36H715.42c-4.06,0-7.72-1.65-10.38-4.3c-2.66-2.66-4.3-6.32-4.3-10.38    c0-8.11,6.56-14.68,14.68-14.68H847.9z"/><path fill="#b3b1ad" d="M840.49,740.69H714.84c-0.59,0-1.06,0.48-1.06,1.06s0.48,1.06,1.06,1.06h125.65c0.59,0,1.06-0.48,1.06-1.06     S841.08,740.69,840.49,740.69z"/><path fill="#b3b1ad" d="M838.5,744.77h-89.13c-0.59,0-1.06,0.48-1.06,1.06c0,0.59,0.48,1.06,1.06,1.06h89.13     c0.59,0,1.06-0.48,1.06-1.06C839.56,745.25,839.09,744.77,838.5,744.77z"/><path fill="#b3b1ad" d="M774.48,751.28c0-0.59-0.48-1.06-1.06-1.06h-59.66c-0.59,0-1.06,0.48-1.06,1.06c0,0.59,0.48,1.06,1.06,1.06     h59.66C774,752.34,774.48,751.87,774.48,751.28z"/><path fill="#b3b1ad" d="M837.78,750.22h-54.96c-0.59,0-1.06,0.48-1.06,1.06c0,0.59,0.48,1.06,1.06,1.06h54.96     c0.59,0,1.06-0.47,1.06-1.06C838.84,750.69,838.37,750.22,837.78,750.22z"/><path fill="#b3b1ad" d="M740.54,754.68c0,0.59,0.48,1.06,1.06,1.06h68.66c0.59,0,1.06-0.48,1.06-1.06s-0.48-1.06-1.06-1.06H741.6     C741.01,753.62,740.54,754.1,740.54,754.68z"/><path fill="#b3b1ad" d="M834.3,758.39H732.2c-0.59,0-1.06,0.48-1.06,1.06c0,0.59,0.48,1.06,1.06,1.06h102.1     c0.59,0,1.06-0.48,1.06-1.06C835.36,758.86,834.89,758.39,834.3,758.39z"/><path fill="#b3b1ad" d="M818.98,763.15h-95.46c-0.59,0-1.06,0.48-1.06,1.06c0,0.59,0.48,1.06,1.06,1.06h95.46     c0.59,0,1.06-0.48,1.06-1.06C820.04,763.63,819.56,763.15,818.98,763.15z"/></g><g><path fill="#6e7190" d="M826.93,703.25v32.94H675.1c-8.1,0-14.68-6.57-14.68-14.68v-3.58c0-8.1,6.57-14.68,14.68-14.68H826.93z"/><path fill="#eeece7" d="M826.93,705.05v29.36H694.45c-4.06,0-7.72-1.65-10.38-4.3c-2.66-2.66-4.3-6.32-4.3-10.38    c0-8.11,6.56-14.68,14.68-14.68H826.93z"/><path fill="#b3b1ad" d="M819.52,707.75H693.87c-0.59,0-1.06,0.48-1.06,1.06s0.48,1.06,1.06,1.06h125.65c0.59,0,1.06-0.48,1.06-1.06     S820.11,707.75,819.52,707.75z"/><path fill="#b3b1ad" d="M817.53,711.84H728.4c-0.59,0-1.06,0.48-1.06,1.06c0,0.59,0.48,1.06,1.06,1.06h89.13     c0.59,0,1.06-0.48,1.06-1.06C818.59,712.31,818.12,711.84,817.53,711.84z"/><path fill="#b3b1ad" d="M753.51,718.34c0-0.59-0.48-1.06-1.06-1.06h-59.66c-0.59,0-1.06,0.48-1.06,1.06s0.48,1.06,1.06,1.06h59.66     C753.03,719.41,753.51,718.93,753.51,718.34z"/><path fill="#b3b1ad" d="M816.81,717.28h-54.96c-0.59,0-1.06,0.48-1.06,1.06s0.48,1.06,1.06,1.06h54.96c0.59,0,1.06-0.48,1.06-1.06     S817.39,717.28,816.81,717.28z"/><path fill="#b3b1ad" d="M719.56,721.75c0,0.59,0.48,1.06,1.06,1.06h68.66c0.59,0,1.06-0.48,1.06-1.06c0-0.59-0.48-1.06-1.06-1.06     h-68.66C720.04,720.68,719.56,721.16,719.56,721.75z"/><path fill="#b3b1ad" d="M813.33,725.45h-102.1c-0.59,0-1.06,0.48-1.06,1.06c0,0.59,0.48,1.06,1.06,1.06h102.1     c0.59,0,1.06-0.48,1.06-1.06C814.39,725.92,813.91,725.45,813.33,725.45z"/><path fill="#b3b1ad" d="M798,730.21h-95.46c-0.59,0-1.06,0.48-1.06,1.06c0,0.59,0.48,1.06,1.06,1.06H798     c0.59,0,1.06-0.48,1.06-1.06C799.07,730.69,798.59,730.21,798,730.21z"/></g><g><path fill="#9ba39c" d="M846.55,670.31v32.94H694.71c-8.1,0-14.68-6.57-14.68-14.68v-3.58c0-8.1,6.57-14.68,14.68-14.68H846.55z"/><path fill="#eeece7" d="M846.55,672.11v29.36H714.07c-4.06,0-7.72-1.65-10.38-4.3c-2.66-2.66-4.3-6.32-4.3-10.38    c0-8.11,6.56-14.68,14.68-14.68H846.55z"/><path fill="#b3b1ad" d="M839.14,674.81H713.48c-0.59,0-1.06,0.48-1.06,1.06c0,0.59,0.48,1.06,1.06,1.06h125.65     c0.59,0,1.06-0.48,1.06-1.06C840.2,675.29,839.72,674.81,839.14,674.81z"/><path fill="#b3b1ad" d="M837.15,678.9h-89.13c-0.59,0-1.06,0.47-1.06,1.06c0,0.59,0.48,1.06,1.06,1.06h89.13     c0.59,0,1.06-0.47,1.06-1.06C838.21,679.37,837.73,678.9,837.15,678.9z"/><path fill="#b3b1ad" d="M773.12,685.41c0-0.59-0.48-1.06-1.06-1.06H712.4c-0.59,0-1.06,0.48-1.06,1.06s0.48,1.06,1.06,1.06h59.66     C772.65,686.47,773.12,685.99,773.12,685.41z"/><path fill="#b3b1ad" d="M836.42,684.34h-54.96c-0.59,0-1.06,0.48-1.06,1.06s0.48,1.06,1.06,1.06h54.96c0.59,0,1.06-0.48,1.06-1.06     S837.01,684.34,836.42,684.34z"/><path fill="#b3b1ad" d="M739.18,688.81c0,0.59,0.48,1.06,1.06,1.06h68.66c0.59,0,1.06-0.48,1.06-1.06c0-0.59-0.48-1.06-1.06-1.06     h-68.66C739.66,687.75,739.18,688.22,739.18,688.81z"/><path fill="#b3b1ad" d="M832.94,692.51h-102.1c-0.59,0-1.06,0.47-1.06,1.06c0,0.59,0.48,1.06,1.06,1.06h102.1     c0.59,0,1.06-0.47,1.06-1.06C834.01,692.99,833.53,692.51,832.94,692.51z"/><path fill="#b3b1ad" d="M817.62,697.28h-95.46c-0.59,0-1.06,0.48-1.06,1.06c0,0.59,0.48,1.06,1.06,1.06h95.46     c0.59,0,1.06-0.47,1.06-1.06C818.68,697.75,818.21,697.28,817.62,697.28z"/></g></svg>