<svg width="907" height="248" viewBox="0 0 907 248" fill="none" xmlns="http://www.w3.org/2000/svg">
<g clip-path="url(#clip0_101_2)">
<g clip-path="url(#clip1_101_2)">
<path d="M20 124C20 60.4869 71.4869 9 135 9C198.512 9 249.999 60.4869 250 124C250 187.512 198.513 238.999 135 239C71.4869 239 20 187.513 20 124ZM135 234.131C195.824 234.131 245.131 184.824 245.131 124C245.131 63.1757 195.824 13.8683 135 13.8683C74.1757 13.8683 24.8683 63.1757 24.8683 124C24.8683 184.824 74.1757 234.131 135 234.131Z" fill="#1EB854"/>
<g clip-path="url(#clip2_101_2)">
<g clip-path="url(#clip3_101_2)">
<path d="M169.165 61.7034V54.7572L106.475 67.8892C88.2556 66.3405 89.3648 82.4203 89.3648 82.4203V148.121C89.5684 164.958 106.475 163.328 106.475 163.328L112.323 164.652V193.231L120.468 183.204L128.479 193.243V168.321L169.165 177.556V169.401H180.648V61.7034H169.165ZM126.563 187.36L120.446 179.317L114.227 187.36V165.089L126.563 167.887V187.36ZM167.124 174.432L107.628 160.919C107.628 160.919 91.7558 163.128 91.7558 146.231V84.1345C91.7558 84.1345 90.6878 67.6474 107.628 70.3418L167.124 57.8838V174.432ZM178.689 167.44H169.163V164.413H174.314V66.7346H169.163V63.6784H178.689V167.44Z" fill="#1EB854"/>
<path d="M105.587 75.3628C105.587 74.9277 105.234 74.5746 104.798 74.5746C104.363 74.5746 104.01 74.9277 104.01 75.3628H104.007V157.58H104.01C104.01 158.015 104.363 158.37 104.798 158.37C105.234 158.37 105.587 158.015 105.587 157.58H105.588V75.3628H105.587Z" fill="#1EB854"/>
</g>
</g>
</g>
</g>
<g clip-path="url(#clip4_101_2)">
<g clip-path="url(#clip5_101_2)">
<path d="M385.768 172.687H267V180.35H385.768V172.687Z" fill="#1EB854"/>
<path d="M888.824 172.687H770.056V180.35H888.824V172.687Z" fill="#1EB854"/>
<g clip-path="url(#clip6_101_2)">
<g clip-path="url(#clip7_101_2)">
<path d="M331.882 50.2496H351.376V132.726H339.005V84.9898L340.004 62.2462H339.879L314.762 132.726H303.64L278.522 62.2462H278.397L279.397 84.9898V132.726H267.025V50.2496H286.894L303.515 97.9861L309.263 117.606H309.513L315.386 97.9861L331.882 50.2496ZM379.868 132.726H366.122L397.238 50.2496H413.234L444.35 132.726H430.229L408.985 73.743L405.236 61.8714H404.861L401.362 73.4931L379.868 132.726ZM427.355 111.107H382.742V100.235H427.355V111.107ZM532.55 132.726H499.559V50.2496H532.05C541.964 50.2496 549.212 52.2491 553.794 56.2479C558.376 60.2468 560.667 65.7869 560.667 72.8682C560.667 77.2003 559.417 81.0493 556.918 84.415C554.419 87.7973 550.753 89.9467 545.921 90.8631V90.9881C551.253 91.8212 555.402 94.0039 558.368 97.5363C561.317 101.085 562.791 105.192 562.791 109.858C562.791 116.939 560.209 122.521 555.043 126.603C549.878 130.685 542.38 132.726 532.55 132.726ZM512.68 96.8614V121.604H533.175C538.423 121.604 542.364 120.521 544.996 118.355C547.612 116.189 548.92 113.148 548.92 109.233C548.92 105.317 547.612 102.277 544.996 100.111C542.364 97.9445 538.423 96.8614 533.175 96.8614H512.68ZM512.68 61.4965V85.7396H531.05C541.547 85.7396 546.796 81.6991 546.796 73.618C546.796 65.537 541.547 61.4965 531.05 61.4965H512.68ZM582.286 50.2496H595.657V132.726H582.286V50.2496ZM653.141 132.726H620.15V50.2496H652.641C662.555 50.2496 669.803 52.2491 674.385 56.2479C678.967 60.2468 681.258 65.7869 681.258 72.8682C681.258 77.2003 680.008 81.0493 677.509 84.415C675.01 87.7973 671.344 89.9467 666.512 90.8631V90.9881C671.844 91.8212 675.984 94.0039 678.933 97.5363C681.899 101.085 683.382 105.192 683.382 109.858C683.382 116.939 680.8 122.521 675.634 126.603C670.469 130.685 662.971 132.726 653.141 132.726ZM633.271 96.8614V121.604H653.766C659.014 121.604 662.946 120.521 665.562 118.355C668.195 116.189 669.511 113.148 669.511 109.233C669.511 105.317 668.195 102.277 665.562 100.111C662.946 97.9445 659.014 96.8614 653.766 96.8614H633.271ZM633.271 61.4965V85.7396H651.641C662.138 85.7396 667.387 81.6991 667.387 73.618C667.387 65.537 662.138 61.4965 651.641 61.4965H633.271ZM716.248 50.2496V121.23H761.735V132.726H702.877V50.2496H716.248ZM777.705 50.2496H791.077V132.726H777.705V50.2496ZM849.81 49C857.808 49 864.722 50.7078 870.554 54.1235C876.386 57.5392 880.885 62.4129 884.05 68.7444C887.216 75.0759 888.799 82.6571 888.799 91.488C888.799 100.319 887.216 107.9 884.05 114.232C880.885 120.563 876.386 125.437 870.554 128.852C864.722 132.268 857.808 133.976 849.81 133.976C841.896 133.976 835.023 132.268 829.191 128.852C823.359 125.437 818.86 120.563 815.695 114.232C812.529 107.9 810.946 100.319 810.946 91.488C810.946 82.6571 812.529 75.0759 815.695 68.7444C818.86 62.4129 823.359 57.5392 829.191 54.1235C835.023 50.7078 841.896 49 849.81 49ZM849.81 60.6217C844.645 60.6217 840.213 61.8297 836.514 64.2457C832.798 66.6617 829.941 70.1607 827.941 74.7427C825.942 79.3247 824.942 84.9065 824.942 91.488C824.942 97.9861 825.942 103.543 827.941 108.158C829.941 112.79 832.798 116.314 836.514 118.73C840.213 121.146 844.645 122.354 849.81 122.354C855.059 122.354 859.541 121.146 863.256 118.73C866.955 116.314 869.804 112.79 871.804 108.158C873.803 103.543 874.803 97.9861 874.803 91.488C874.803 84.9065 873.803 79.3247 871.804 74.7427C869.804 70.1607 866.955 66.6617 863.256 64.2457C859.541 61.8297 855.059 60.6217 849.81 60.6217Z" fill="#1EB854"/>
</g>
</g>
<g clip-path="url(#clip8_101_2)">
<g clip-path="url(#clip9_101_2)">
<path d="M398.365 189.433V156.046H410.419C412.779 156.046 414.606 156.725 415.901 158.083C417.189 159.436 417.833 161.563 417.833 164.464C417.833 168.738 416.207 171.129 412.954 171.639V172.07C416.972 172.357 418.981 175.004 418.981 180.01C418.981 183.04 418.305 185.368 416.953 186.994C415.594 188.62 413.767 189.433 411.471 189.433H398.365ZM401.139 173.266V186.994H410.754C412.539 186.994 413.863 186.49 414.724 185.482C415.585 184.481 416.015 183.072 416.015 181.254V179.006C416.015 177.188 415.585 175.775 414.724 174.768C413.863 173.766 412.539 173.266 410.754 173.266H401.139ZM401.139 158.485V170.826H410.084C411.71 170.826 412.916 170.386 413.7 169.506C414.478 168.632 414.867 167.398 414.867 165.804V163.508C414.867 161.913 414.478 160.676 413.7 159.796C412.916 158.922 411.71 158.485 410.084 158.485H401.139ZM433.618 190.007C432.183 190.007 430.866 189.759 429.667 189.261C428.474 188.77 427.448 188.005 426.587 186.965C425.726 185.932 425.062 184.609 424.597 182.995C424.137 181.388 423.908 179.452 423.908 177.188C423.908 174.924 424.137 172.985 424.597 171.372C425.062 169.764 425.726 168.441 426.587 167.401C427.448 166.368 428.474 165.603 429.667 165.105C430.866 164.614 432.183 164.369 433.618 164.369C435.053 164.369 436.367 164.614 437.559 165.105C438.758 165.603 439.789 166.368 440.65 167.401C441.511 168.441 442.171 169.764 442.63 171.372C443.095 172.985 443.328 174.924 443.328 177.188C443.328 179.452 443.095 181.388 442.63 182.995C442.171 184.609 441.511 185.932 440.65 186.965C439.789 188.005 438.758 188.77 437.559 189.261C436.367 189.759 435.053 190.007 433.618 190.007ZM433.618 187.664C435.818 187.664 437.515 186.952 438.707 185.53C439.906 184.114 440.506 182.051 440.506 179.341V175.036C440.506 172.325 439.906 170.259 438.707 168.836C437.515 167.421 435.818 166.713 433.618 166.713C431.418 166.713 429.718 167.421 428.519 168.836C427.326 170.259 426.73 172.325 426.73 175.036V179.341C426.73 182.051 427.326 184.114 428.519 185.53C429.718 186.952 431.418 187.664 433.618 187.664ZM457.439 190.007C456.004 190.007 454.687 189.759 453.488 189.261C452.295 188.77 451.269 188.005 450.408 186.965C449.547 185.932 448.883 184.609 448.418 182.995C447.958 181.388 447.729 179.452 447.729 177.188C447.729 174.924 447.958 172.985 448.418 171.372C448.883 169.764 449.547 168.441 450.408 167.401C451.269 166.368 452.295 165.603 453.488 165.105C454.687 164.614 456.004 164.369 457.439 164.369C458.874 164.369 460.188 164.614 461.38 165.105C462.579 165.603 463.609 166.368 464.47 167.401C465.331 168.441 465.992 169.764 466.451 171.372C466.916 172.985 467.149 174.924 467.149 177.188C467.149 179.452 466.916 181.388 466.451 182.995C465.992 184.609 465.331 185.932 464.47 186.965C463.609 188.005 462.579 188.77 461.38 189.261C460.188 189.759 458.874 190.007 457.439 190.007ZM457.439 187.664C459.639 187.664 461.336 186.952 462.528 185.53C463.727 184.114 464.327 182.051 464.327 179.341V175.036C464.327 172.325 463.727 170.259 462.528 168.836C461.336 167.421 459.639 166.713 457.439 166.713C455.239 166.713 453.539 167.421 452.34 168.836C451.147 170.259 450.551 172.325 450.551 175.036V179.341C450.551 182.051 451.147 184.114 452.34 185.53C453.539 186.952 455.239 187.664 457.439 187.664ZM473.31 189.433V154.037H475.941V173.17L475.75 177.714H476.037L479.481 173.457L486.703 164.943H489.86L481.298 174.94L490.769 189.433H487.612L479.385 176.518L475.941 180.441V189.433H473.31ZM501.484 190.007C499.571 190.007 497.928 189.631 496.557 188.879C495.186 188.132 493.99 186.994 492.97 185.463L494.835 183.933C495.728 185.272 496.701 186.235 497.753 186.822C498.805 187.415 500.049 187.711 501.484 187.711C503.11 187.711 504.402 187.313 505.358 186.516C506.315 185.718 506.793 184.554 506.793 183.024C506.793 181.684 506.475 180.638 505.837 179.886C505.199 179.14 504.051 178.623 502.393 178.336L500.479 178.001C498.247 177.619 496.567 176.907 495.438 175.868C494.303 174.835 493.735 173.266 493.735 171.161C493.735 168.833 494.436 167.118 495.84 166.014C497.243 164.917 499.06 164.369 501.293 164.369C502.983 164.369 504.45 164.662 505.693 165.249C506.937 165.842 508.021 166.776 508.946 168.052L507.224 169.63C505.757 167.653 503.796 166.665 501.34 166.665C499.714 166.665 498.47 167.031 497.609 167.765C496.748 168.498 496.318 169.599 496.318 171.065C496.318 172.5 496.669 173.553 497.37 174.222C498.072 174.892 499.236 175.37 500.862 175.657L502.728 175.992C505.055 176.407 506.746 177.14 507.798 178.193C508.85 179.245 509.376 180.776 509.376 182.785C509.376 185.081 508.691 186.857 507.32 188.113C505.948 189.376 504.003 190.007 501.484 190.007ZM526.931 189.433V167.239H523.152V164.943H526.931V157.385C526.931 156.205 527.193 155.351 527.716 154.821C528.245 154.298 529.1 154.037 530.28 154.037H534.345V156.333H529.562V164.943H534.345V167.239H529.562V189.433H526.931ZM546.964 190.007C545.529 190.007 544.215 189.759 543.022 189.261C541.823 188.77 540.793 188.005 539.932 186.965C539.071 185.932 538.411 184.609 537.952 182.995C537.486 181.388 537.254 179.452 537.254 177.188C537.254 174.924 537.486 172.985 537.952 171.372C538.411 169.764 539.071 168.441 539.932 167.401C540.793 166.368 541.823 165.603 543.022 165.105C544.215 164.614 545.529 164.369 546.964 164.369C548.399 164.369 549.716 164.614 550.915 165.105C552.107 165.603 553.134 166.368 553.995 167.401C554.856 168.441 555.52 169.764 555.985 171.372C556.444 172.985 556.674 174.924 556.674 177.188C556.674 179.452 556.444 181.388 555.985 182.995C555.52 184.609 554.856 185.932 553.995 186.965C553.134 188.005 552.107 188.77 550.915 189.261C549.716 189.759 548.399 190.007 546.964 190.007ZM546.964 187.664C549.164 187.664 550.864 186.952 552.063 185.53C553.255 184.114 553.852 182.051 553.852 179.341V175.036C553.852 172.325 553.255 170.259 552.063 168.836C550.864 167.421 549.164 166.713 546.964 166.713C544.763 166.713 543.067 167.421 541.874 168.836C540.675 170.259 540.076 172.325 540.076 175.036V179.341C540.076 182.051 540.675 184.114 541.874 185.53C543.067 186.952 544.763 187.664 546.964 187.664ZM565.475 189.433H562.844V164.943H565.475V169.391H565.858C566.304 168.02 567.054 166.936 568.106 166.139C569.158 165.341 570.498 164.943 572.124 164.943H573.655V167.526H571.454C569.701 167.526 568.266 168.004 567.149 168.961C566.033 169.917 565.475 171.241 565.475 172.931V189.433ZM596.376 190.007C594.941 190.007 593.624 189.759 592.425 189.261C591.232 188.77 590.205 188.005 589.344 186.965C588.483 185.932 587.82 184.609 587.354 182.995C586.895 181.388 586.665 179.452 586.665 177.188C586.665 174.924 586.895 172.985 587.354 171.372C587.82 169.764 588.483 168.441 589.344 167.401C590.205 166.368 591.232 165.603 592.425 165.105C593.624 164.614 594.941 164.369 596.376 164.369C599.278 164.369 601.548 165.373 603.187 167.382C604.833 169.391 605.655 172.58 605.655 176.949V177.666H589.488V179.341C589.488 182.051 590.084 184.114 591.277 185.53C592.476 186.952 594.175 187.664 596.376 187.664C598.193 187.664 599.651 187.255 600.748 186.439C601.851 185.629 602.722 184.411 603.359 182.785L605.177 184.028C604.475 185.91 603.413 187.377 601.991 188.429C600.575 189.481 598.704 190.007 596.376 190.007ZM596.376 166.617C594.175 166.617 592.476 167.341 591.277 168.789C590.084 170.243 589.488 172.325 589.488 175.036V175.657H602.833V175.036C602.833 172.325 602.297 170.243 601.226 168.789C600.161 167.341 598.544 166.617 596.376 166.617ZM619.804 189.433H616.552L608.707 164.943H611.338L615.595 178.527L617.987 187.137H618.369L620.761 178.527L625.018 164.943H627.601L619.804 189.433ZM640.086 190.007C638.651 190.007 637.337 189.759 636.144 189.261C634.945 188.77 633.915 188.005 633.054 186.965C632.193 185.932 631.533 184.609 631.074 182.995C630.608 181.388 630.376 179.452 630.376 177.188C630.376 174.924 630.608 172.985 631.074 171.372C631.533 169.764 632.193 168.441 633.054 167.401C633.915 166.368 634.945 165.603 636.144 165.105C637.337 164.614 638.651 164.369 640.086 164.369C642.988 164.369 645.261 165.373 646.907 167.382C648.546 169.391 649.365 172.58 649.365 176.949V177.666H633.198V179.341C633.198 182.051 633.797 184.114 634.996 185.53C636.189 186.952 637.885 187.664 640.086 187.664C641.903 187.664 643.364 187.255 644.467 186.439C645.564 185.629 646.432 184.411 647.069 182.785L648.887 184.028C648.185 185.91 647.127 187.377 645.711 188.429C644.289 189.481 642.414 190.007 640.086 190.007ZM640.086 166.617C637.885 166.617 636.189 167.341 634.996 168.789C633.797 170.243 633.198 172.325 633.198 175.036V175.657H646.543V175.036C646.543 172.325 646.011 170.243 644.946 168.789C643.874 167.341 642.254 166.617 640.086 166.617ZM658.167 189.433H655.536V164.943H658.167V169.391H658.549C658.996 168.02 659.745 166.936 660.798 166.139C661.85 165.341 663.189 164.943 664.816 164.943H666.346V167.526H664.146C662.392 167.526 660.957 168.004 659.841 168.961C658.725 169.917 658.167 171.241 658.167 172.931V189.433ZM680.744 178.527L685.001 164.943H687.584L677.444 196.656C677.157 197.581 676.806 198.203 676.391 198.522C675.977 198.841 675.275 199 674.287 199H671.082V196.704H675.052L676.87 190.581L668.69 164.943H671.321L675.578 178.527L677.97 187.137H678.352L680.744 178.527ZM700.059 190.007C698.624 190.007 697.31 189.759 696.118 189.261C694.919 188.77 693.889 188.005 693.028 186.965C692.167 185.932 691.507 184.609 691.047 182.995C690.582 181.388 690.349 179.452 690.349 177.188C690.349 174.924 690.582 172.985 691.047 171.372C691.507 169.764 692.167 168.441 693.028 167.401C693.889 166.368 694.919 165.603 696.118 165.105C697.31 164.614 698.624 164.369 700.059 164.369C701.494 164.369 702.811 164.614 704.01 165.105C705.203 165.603 706.23 166.368 707.091 167.401C707.952 168.441 708.615 169.764 709.08 171.372C709.54 172.985 709.769 174.924 709.769 177.188C709.769 179.452 709.54 181.388 709.08 182.995C708.615 184.609 707.952 185.932 707.091 186.965C706.23 188.005 705.203 188.77 704.01 189.261C702.811 189.759 701.494 190.007 700.059 190.007ZM700.059 187.664C702.259 187.664 703.959 186.952 705.158 185.53C706.351 184.114 706.947 182.051 706.947 179.341V175.036C706.947 172.325 706.351 170.259 705.158 168.836C703.959 167.421 702.259 166.713 700.059 166.713C697.859 166.713 696.162 167.421 694.97 168.836C693.771 170.259 693.171 172.325 693.171 175.036V179.341C693.171 182.051 693.771 184.114 694.97 185.53C696.162 186.952 697.859 187.664 700.059 187.664ZM718.571 189.433H715.94V164.943H718.571V168.817H718.953C719.4 167.414 720.175 166.32 721.278 165.536C722.375 164.758 723.8 164.369 725.554 164.369C727.786 164.369 729.524 165.093 730.768 166.54C732.012 167.995 732.634 170.173 732.634 173.074V189.433H730.003V173.218C730.003 171.145 729.556 169.541 728.663 168.406C727.771 167.277 726.415 166.713 724.598 166.713C723.768 166.713 722.987 166.84 722.254 167.095C721.52 167.35 720.883 167.723 720.34 168.215C719.798 168.712 719.368 169.318 719.049 170.032C718.73 170.753 718.571 171.56 718.571 172.453V189.433ZM748.179 190.007C746.744 190.007 745.427 189.759 744.228 189.261C743.036 188.77 742.009 188.005 741.148 186.965C740.287 185.932 739.624 184.609 739.158 182.995C738.699 181.388 738.469 179.452 738.469 177.188C738.469 174.924 738.699 172.985 739.158 171.372C739.624 169.764 740.287 168.441 741.148 167.401C742.009 166.368 743.036 165.603 744.228 165.105C745.427 164.614 746.744 164.369 748.179 164.369C751.081 164.369 753.352 165.373 754.991 167.382C756.636 169.391 757.459 172.58 757.459 176.949V177.666H741.291V179.341C741.291 182.051 741.888 184.114 743.08 185.53C744.279 186.952 745.979 187.664 748.179 187.664C749.997 187.664 751.454 187.255 752.551 186.439C753.655 185.629 754.525 184.411 755.163 182.785L756.981 184.028C756.279 185.91 755.217 187.377 753.795 188.429C752.379 189.481 750.507 190.007 748.179 190.007ZM748.179 166.617C745.979 166.617 744.279 167.341 743.08 168.789C741.888 170.243 741.291 172.325 741.291 175.036V175.657H754.637V175.036C754.637 172.325 754.101 170.243 753.03 168.789C751.965 167.341 750.348 166.617 748.179 166.617Z" fill="#1EB854"/>
</g>
</g>
</g>
</g>
<defs>
<clipPath id="clip0_101_2">
<rect width="230" height="230" fill="white" transform="translate(20 9)"/>
</clipPath>
<clipPath id="clip1_101_2">
<rect width="230" height="230" fill="white" transform="translate(20 9)"/>
</clipPath>
<clipPath id="clip2_101_2">
<rect width="91.2965" height="138.486" fill="white" transform="translate(89.3517 54.7572)"/>
</clipPath>
<clipPath id="clip3_101_2">
<rect width="91.2965" height="138.486" fill="white" transform="translate(89.3517 54.7572)"/>
</clipPath>
<clipPath id="clip4_101_2">
<rect width="621.824" height="150" fill="white" transform="translate(267 49)"/>
</clipPath>
<clipPath id="clip5_101_2">
<rect width="621.824" height="150" fill="white" transform="translate(267 49)"/>
</clipPath>
<clipPath id="clip6_101_2">
<rect width="621.824" height="84.9759" fill="white" transform="translate(267 49)"/>
</clipPath>
<clipPath id="clip7_101_2">
<rect width="621.824" height="84.9759" fill="white" transform="translate(267 49)"/>
</clipPath>
<clipPath id="clip8_101_2">
<rect width="384.287" height="44.9633" fill="white" transform="translate(385.768 154.037)"/>
</clipPath>
<clipPath id="clip9_101_2">
<rect width="359.133" height="44.9633" fill="white" transform="translate(398.346 154.037)"/>
</clipPath>
</defs>
</svg>
